<?xml version="1.0" encoding="UTF-8"?>
<svg id="_レイヤー_1" data-name="レイヤー 1" xmlns="http://www.w3.org/2000/svg" viewBox="0 0 438.65 384.81">
  <defs>
    <style>
      .cls-1 {
        fill: #fff;
      }

      .cls-2 {
        fill: #ffc938;
      }

      .cls-3 {
        fill: #ff0d23;
      }
    </style>
  </defs>
  <g>
    <path class="cls-1" d="M126.2,384.81c-8.23,0-16.97-.65-26.53-1.97-30.43-4.19-55.54-18.42-74.64-42.29C7.97,319.24-.44,292.56.02,261.28c.18-12.07,1.19-21.77,3.18-30.51,7.15-31.31,18.77-51.75,37.7-66.28.44-.34,1.07-.25,1.4.18.34.44.25,1.07-.18,1.4-18.53,14.23-29.93,34.31-36.97,65.14-1.96,8.61-2.96,18.17-3.13,30.1-.45,30.81,7.81,57.05,24.57,78,18.77,23.45,43.44,37.43,73.35,41.56,12.27,1.69,23.18,2.27,33.35,1.78,14.63-.71,30-3.07,48.37-7.43,18.9-4.49,37.33-11.29,55.16-17.87,6.31-2.33,12.83-4.74,19.29-7.01,15-5.28,31.05-10.63,47.76-12.94,13.5-1.87,27.92-2.93,41.89,1.82,2.92.99,5.61,2.65,8.21,4.24.75.46,1.5.92,2.25,1.36,3.17,1.87,5.01,4.99,5.63,9.56.07.55-.31,1.05-.86,1.12-.55.07-1.05-.31-1.12-.86-.54-3.97-2.02-6.55-4.66-8.1-.76-.45-1.52-.92-2.28-1.38-2.51-1.54-5.1-3.13-7.81-4.06-13.58-4.62-27.72-3.57-40.98-1.74-16.53,2.28-32.47,7.6-47.37,12.85-6.44,2.27-12.96,4.67-19.26,7-17.88,6.6-36.36,13.43-55.38,17.94-18.49,4.39-33.98,6.77-48.74,7.49-2.35.11-4.75.17-7.19.17Z"/>
    <path class="cls-1" d="M373.92,340.12c-.55,0-1-.45-1-1s.45-1,1-1c9.19,0,16.9-4.17,23.22-8.25,19.34-12.47,31.36-31.17,36.73-57.16,2.08-10.04,2.97-18.64,2.73-26.3-1.07-34.52-12.66-61.1-35.43-81.25-8.25-7.3-17.2-12.41-26.61-15.21-1.38-.41-2.95-.69-4.94-.9-1.49-.15-3.57-.54-4.44-2.1-.62-1.12-.49-2.58.42-4.46,2.98-6.15,4.32-12.87,4.09-20.53-.5-16.53-11.3-31.74-26.88-37.85-6.51-2.55-13.47-3.24-21.9-2.15-.15.03-.51.37-.73.58-.22.21-.44.41-.67.58-.44.33-1.07.24-1.4-.2-.33-.44-.24-1.07.2-1.4.17-.13.33-.28.5-.44.5-.47,1.07-1,1.85-1.1,8.78-1.13,16.05-.41,22.89,2.27,16.32,6.4,27.63,22.33,28.15,39.65.24,7.99-1.16,15.01-4.29,21.46-.41.85-.83,1.99-.48,2.62.3.54,1.3.92,2.89,1.08,2.12.22,3.81.53,5.3.97,9.7,2.88,18.91,8.13,27.37,15.63,23.21,20.54,35.01,47.59,36.11,82.69.24,7.81-.66,16.57-2.77,26.76-5.49,26.55-17.79,45.66-37.61,58.44-6.57,4.24-14.6,8.57-24.31,8.57Z"/>
    <path class="cls-1" d="M318.91,82.39c-.42,0-.81-.27-.95-.68-.14-.42-.32-.83-.5-1.25-.45-1.04-.92-2.12-.88-3.29.52-16.69-5.51-32.02-18.44-46.88-10.97-12.61-23.18-20.53-37.33-24.21-7.85-2.04-16.95-4.2-25.8-4.06-27.41.44-48.67,8.82-64.98,25.61-1.93,1.99-3.55,4.41-5.12,6.74-.74,1.1-1.51,2.25-2.3,3.34-.32.45-.95.55-1.4.22-.45-.32-.55-.95-.22-1.4.77-1.06,1.53-2.19,2.26-3.28,1.62-2.41,3.29-4.91,5.35-7.02C185.3,9.03,207.01.46,234.98,0c9.09-.15,18.36,2.05,26.33,4.13,14.55,3.79,27.1,11.91,38.34,24.84,13.27,15.26,19.46,31.04,18.92,48.26-.02.72.34,1.55.72,2.43.2.47.41.94.56,1.41.17.52-.11,1.09-.63,1.27-.1.03-.21.05-.32.05Z"/>
    <path class="cls-1" d="M41.98,158.83c-.31,0-.61-.14-.81-.41-8.15-11.12-10.83-24.7-7.96-40.36,4.16-22.73,16.46-42.4,36.54-58.47,16.38-13.1,35.09-20.49,55.61-21.97,10.53-.76,18.82.27,26.08,3.23.51.21.76.79.55,1.3-.21.51-.79.76-1.3.55-6.97-2.84-14.98-3.82-25.19-3.09-20.11,1.44-38.45,8.69-54.51,21.54-19.98,15.98-31.69,34.71-35.82,57.27-2.76,15.1-.21,28.16,7.61,38.82.33.45.23,1.07-.22,1.4-.18.13-.39.19-.59.19Z"/>
  </g>
  <g>
    <path class="cls-1" d="M174.08,262.53c-.79,1.38-1.6,2.54-2.24,3.91-.1.21-.46.59-.68.66s-.63-.13-.74-.29l-.68-1.01-1.06-.98-1.05-1-1.6-1.84c-1.58-1.82-2.4-6.39.1-7.93,1.91-1.17,3.62.65,4.66,2.32l.2-.18c.42-.93.89-1.81,1.69-2.61l1.1-.86c1.05-.82,2.37-.43,2.85.47.93,1.77-.3,5.38-1.52,7.52l-1.03,1.81Z"/>
    <path d="M171.07,268.61c-.76,0-1.54-.44-1.9-.97l-.58-.86-2.09-1.98-1.6-1.84c-1.37-1.58-2.12-4.35-1.78-6.59.25-1.61,1.02-2.86,2.22-3.6.7-.43,2.89-1.43,5.28.95.28-.41.6-.82.99-1.2l.14-.12,1.1-.86c.84-.66,1.89-.91,2.9-.69.96.21,1.76.81,2.21,1.65,1.35,2.57-.34,6.84-1.55,8.96l-1.03,1.81c-.28.5-.57.97-.85,1.43-.49.8-.95,1.55-1.33,2.37-.21.44-.83,1.23-1.61,1.46-.17.05-.34.07-.52.07ZM171.63,265.93l.03.04s-.02-.03-.03-.04ZM168.72,262.79l2.22,2.11c.33-.61.68-1.19,1.03-1.76.27-.44.54-.88.81-1.35l1.03-1.81c1.28-2.24,1.99-5.14,1.5-6.08-.02-.04-.09-.09-.18-.11-.09-.02-.24-.02-.42.12l-1.02.8c-.58.6-.95,1.27-1.32,2.1l-.12.27-.91.85c-.44.41-1.13.32-1.45-.19l-.36-.57c-.58-.93-1.69-2.4-2.6-1.84-.44.27-.72.78-.83,1.5-.23,1.49.37,3.36,1.08,4.17l1.55,1.79Z"/>
  </g>
  <path class="cls-3" d="M81.95,310.22l5.12-2.37,9.38-3.85,22.38-6.89,7.73-1.56,13.76-2.01,9.61-.89,27.81-.39,9.8.6,23.26,2.48,9.27,1.1,6.36.95,5.11.78,6.4.98,5.07.75,5.91.87,5.07.73,8.83.93,12.22.99c10.12.82,19.98.56,30-.32l6.34-.56,11.28-1.55,14.66-2.98,9.99-3.03c.39-.12,1.33-1.42,1.05-1.73l-4.22-4.68c-2.75-3.05-3.88-6.41-5.03-10.19-1.98-6.46-1.03-13.15,3.91-18.22,3.37-3.47,8.86-4.74,12.43-1.98,2.41,1.86,3.9,4.89,4.56,7.6.49,2,1.41-.76,7.7-2.77,2.88-.92,5-1.06,7.63.18,6.43,3.01,4.71,13.44-2.72,20.94-3.53,3.57-7.46,6.49-11.93,8.83l-6.78,3.54-4.7,1.66c-9.15,3.22-18.26,5.93-27.94,7.01l-18.67,2.08-18.36.58-12.7-.61-33.37-4.22-11.57-1.7-23.82-3.06-9.34-.91-7.49-.73-7.9-.35-12.05-.3-9.75.21-11.48.85-6.12.64-20.33,3.64-17.86,5.22c-10.69,3.92-20.85,8.61-30.44,14.7l-7.17,5.11c-.86.61-2.65.62-3.29-.23-.52-.69.02-2.34.83-2.86l8.81-5.73,4.94-3.17,7.81-4.13ZM369.03,281.98l4.28-5.12c2.06-2.46,3.02-5.64,2.03-8.98-1.14-3.83-10.92-1.72-15.12,4.91-.66,1.04-1.91,2.12-2.81,1.94-1.06-.21-2.07-2.07-1.62-3.04,1.55-3.33,1.14-7.01-1.31-9.71s-6.55-1.76-8.72,1.11c-2.59,3.43-4.31,8.08-3.49,12.58,1.14,6.22,5.54,14.52,10.58,16.53,1.65.66,12.55-5.86,16.2-10.23Z"/>
  <path d="M145.51,142.65l2.04-1.25c1.51-1.74,2.96-5.11,3.33-8.05l-4.12,1.07c-5.97,1.55-11.91,2.96-13.83-3.26-1.56-5.03,1.8-7.98-1.87-6.39l-6.79,2.93c-.85.37-2.11.09-2.69-.7-.52-.69.41-2.4,1.39-2.77l8.49-3.2c.7-.26,2.01-1.02,2.22-1.68l4.83-15.85c.71-2.33,2.85-.47,5.04-1.36l5.88-2.39c2.61-1.06,5.98-.99,8.21.69,2.4,1.81,2.87,4.86,2.76,7.65l-.17,4.6,6.18-1.47c.45-.11,1.31.51,1.35.96s-.66,1.7-1.15,1.82l-6.6,1.67-1.27,5.34-1.83,7.05,3.44-.58c.34-.06.92-.07,1.22-.03.4.05.73,1.45.55,1.85-1.25,2.73-5.79,1.59-6.35,3.1l-1.3,3.49c-1.79,4.81-4.72,11.56-7.83,10.07-.98-.47-2.03-2.76-1.11-3.33ZM149.85,108.3l-.73,6.76c2.31-.26,4.73-.76,7.11-1.6.23-1.14.54-2.45.48-3.25l-.38-5.01c-.06-.74-.18-1.73-.52-2.14-.28-.35-1.54-.8-1.97-.68l-7.99,2.23-4.67,1.66-1.7,5.19-1.81,6.92c2.79-.29,5.18-1.11,7.67-2.3l1.19-8.24c.09-.63,1.23-1.54,1.71-1.38s1.68,1.34,1.62,1.84ZM136.1,126.25c-.24,2.03-.13,4.72,1.82,5.87.95.56,3.3-.17,4.41-.38l10.12-1.95,1.86-6.25,1.43-6.97c-1.48.14-2.52.31-3.71.83l-4.11,1.8c-.46,3.74-1.13,6.43-2.48,10.01-1.62-.53-2.5-1.95-2.21-3.2l1.47-6.28-7.92,3.08-.69,3.43Z"/>
  <path d="M150.47,86.4l-4.32,1.12-5.04,1.24-18.17,5.42-6.31,19.99c-.53,1.68-.56,3.16-2.01,4.21-2.25-.95-2.38-2.58-1.84-4.36l3.2-10.64,7.04-19.3,1.83-4.54c.77-1.91,1.96-4.44,3.44-5.87.43-.41,2.33.36,2.27.92s-.35,1.51-.64,2.19l-5.36,12.7,5.14-.92,5.54-1.74,9.26-2.66,10.2-2.36,8.39-1.81c.57-.12,1.79.03,2.26.3s.83,1.48.72,2.01c-.14.63-1.34,1.23-2.14,1.39l-13.45,2.72Z"/>
  <path d="M247.2,101.31c-2.24-2.97-5.47-4.33-8.63-3.23l-2.67,10.69c-2.51,4.55-5.16,9.51-9.54,8.27-2.62-.74-4.4-5.82-3.7-8.03l1.43-4.51c.41-1.28,1.27-2.57,2.13-3.7,2.5-3.29,5-4.75,8.83-6.36,4.5-1.89,12.12.95,13.76,3.5l1.95,3.03c5.57,8.65-4.89,26.35-6.71,21.08-.19-.56-.09-1.52.24-2.11l3.01-5.38c1.65-2.94,2.09-9.66-.1-13.25ZM232.52,107.14l1.86-5.47c.2-.59.1-1.88-.04-2.92-2.19.88-3.65,1.97-4.85,3.76-2.6,2.77-3.6,6.22-2.94,10.09.52.27,1.47.68,1.92.52.82-.28,3.22-3.51,4.06-5.99Z"/>
  <path d="M201.13,124.2l-9.72,3.43c-.51.18-1.7.33-2.06,0s-.89-1.3-1.02-1.85l-.94-3.82c-.76-6.54.08-13.03,1.33-19.5l1.03-1.43c.27-.38,1.64.2,2.1,0l5.74-2.44c2.31-.98,4.7-.71,6.82.83,1.1.8,2.15,3.17,2.15,4.62v7.04s-.58,5.3-.58,5.3l-1.17,5.62c-.13.6-.78,1.75-1.11,2.21s-2.01-.21-2.55-.02ZM197.72,110.32c1.57-.54,3.4-.47,5.17-.46l-.04-6.31c0-.47-.5-1.46-.79-2-2.22-.05-4.23.28-6.1,1.26l-4.15,2.17-.54,6.26c-.02.23.63,1.15.86,1.06l.75-.29,4.85-1.68ZM196.12,122.41l5.32-1.7.52-3.34.47-4.76-6.61,1.8c-1.36.37-3.85,1.07-4.77,2.11-.81.92-.44,3.81-.24,5.01l.29,1.71c.06.35,1.16.41,1.5.3l3.52-1.13Z"/>
  <path d="M179.71,286.26c2.46-4.51,3.68-8.99,4.42-13.91l.86-5.66.54-5.36.07-15.07-.39-8.47-4.99,1.28-14.66,5.57c-.68.26-1.77.44-2.3.19-.61-.29-.56-2.32.06-2.58l9.1-3.9,4.28-1.52,4.13-1.2,6-1.68,4.51-1.26c1.18-.33,3-.76,3.45,1.26.2.91-1.61,2.07-2.57,2.23l-4.56.74c.62,2.28,1.06,3.78,1.14,5.83l.41,11.61-.36,5.89-1.04,10.09c-.47,4.52-1.67,8.93-3.17,13.22-1,2.84-2.59,5.46-4.69,7.53-1.36,1.34-3.65.49-4.28-1.11l-.56-1.43c-.48-1.22,3.53-.31,4.61-2.28Z"/>
  <path class="cls-3" d="M93.19,278.09c2.23.92-1.65,8.04-5.7,11.08-1.85,1.39-4.21,1.26-5.83-.03-2.87-2.29-3.33-5.42-3.68-8.71l-.88-8.37c-3.12.35-5.64,3.02-6.84.74-.29-.55.41-1.91.98-2.18l6.26-2.94,1.19-8.49-5.33,2.19c-.52.22-1.61.27-2.12.06-.6-.25-.81-2.27-.16-2.55l6.69-2.93c1.04-.46,1.84-1.34,2.12-2.44l1.79-6.87c.14-.54,1.42-1.32,1.95-1.31.64.02,1.31,1.42,1.15,2.06l-1.51,6.2,2.99-.71c.65-.16,2.09.19,2.39.75.37.7-.48,2.04-1.29,2.33l-4.97,1.8-1.33,8.41,4.22-1.44c.58-.2,1.58-.32,2.12-.27.65.06.63,2.44,0,2.69l-6.45,2.61c-.86,6.26-.62,9.78,1.6,15.61.19.5,1.09,1.24,1.6,1.38,2.31.63,4.85-4.14,6.7-7.62.34-.65,1.73-1.3,2.32-1.06Z"/>
  <path d="M283.9,179.58c1.75.26,3.92.13,5.27-.36l3.95-1.42,6.83-2.78c.49-.2,1.79.24,1.95.62.71,1.74-1.56,3.05-4.1,4.1l-5.52,2.28c-2.61,1.08-5.58,1.7-8.47.99-2.44-.6-4.52-3.28-4.39-5.82.15-2.86,1.66-5.02,3.38-7.86-1.63.09-4.09.11-4.54-2.37-.5-2.79,2.36-6.71,1-6.18l-3.98,1.56c-.48.19-1.77-.82-1.86-1.34-.11-.62.71-1.59,1.37-2.08l5.81-1.68,2.3-5.45,2.12-.3c.44-.06.82,1.16.69,1.63l-.78,2.8c1.88-.54,3.91-1.04,5.02-1.04.34,0,1.19,1.19.99,1.47l-1.07,1.5-6.33,1.83-1.78,6.3,3.63.92c2.48-3.13,6.1-4.72,6.85-2.88.86,2.12-3.61,3.48-3.35,4.59l.88,3.76c.12.5-.93,1.69-1.45,1.72-.63.03-1.57-.95-1.79-1.58l-.26-.76c-.04-.13-.82,0-.88.12l-2.5,4.85c-.31.61.34,2.77,1.02,2.87Z"/>
  <path d="M336.27,251.32l2.38,1.03c1.04-2.17,1.25-3.96.36-6-.72-1.66-2.97-3.08-5.23-2.75-2.4.35-4.77,2.34-6.5,3.88-.54.48-2.08-.51-2.13-1.14-.06-.7.45-1.72.94-2.42l6.77-9.47,2.2-4.82-5.63,1.42c-.61.15-1.84-.76-1.81-1.3.11-2.32,8.99-4.88,10.94-2.22.38.52.43,2.18.13,2.76l-3.99,7.73-.84,2.05c5.55.19,10.01,4.58,9.34,10.14-.55,4.55-3.1,8.1-7.31,9.85-2.48,1.04-5.27.07-6.37-2.2-1.19-2.46.1-5.28,2.82-6.41,1.09-.45,2.93-.54,3.92-.11ZM336.52,255.1l-.84-.47c-.68-.21-1.89-.35-2.47-.1s-.78,2.27-.16,2.34c2.75.33,3.93-1.51,3.46-1.78Z"/>
  <path d="M161.79,184.74l-2.29.59-3.68,1.66-4.91,2.32-3.87,1.83c-.51.24-1.87-.58-2.16-1.05-.34-.55.09-2.18.71-2.45l13.2-5.62,14.61-5.59c.71-.27,1.83-.1,2.31.28.61.48.34,2.49-.42,2.77l-9.79,3.62-.29,8.29c-1.16,8.25-3.69,15.67-7.92,22.78-.27.46-1.29,1.13-1.8,1.17-.61.05-1.77-1.17-1.85-1.85-.16-1.29.72-2.78,1.6-3.76,4.55-7.47,6.56-15.46,6.56-24.98Z"/>
  <path d="M244.78,181.37l2.63-6.46,3.1-10.73c.38-1.31.05-2.94-.09-4.49-1.46.08-2.9.22-4.07.7l-5.03,2.06-3.58,6.93c-.4.78-.91,1.89-1.56,2.68-.52.64-2.69-1.25-2.31-2.07l5.81-12.46c.28-.6,1.17-1.51,1.72-1.71.64-.22,1.81.93,2.5,1.32.92.52,3.05-.19,4.49-.38,1.63-.22,4.57,1.05,5.19,2.67,1,2.63.47,5.53-.25,8.23-2.82,10.63-7.23,20.46-12.82,29.87-.4.67-2.01,1.19-2.59.88-.67-.36-1.12-2.16-.65-2.83,2.2-3.12,3.8-5.92,5.3-9.29l2.2-4.94Z"/>
  <path class="cls-2" d="M284.48,104.97c-.13,1.33-.26,3.16-1.14,3.81-.47.35-2.15.07-2.22-.48l-.29-2.4-.76-6.43c-.22-1.89-1.3-3.75-2.58-4.71-3.22-2.39-5.77-.13-7.66-1.52-.44-.32-.26-1.97.33-2.19l5.19-1.96c2.82-1.07,4.7-4.37,4.95-7.29l.65-7.85c.05-.59.86-1.74,1.4-1.79s1.72.93,1.75,1.51l.33,5.15c.28,4.36-.34,5.53,4.19,8.46,1.91,1.24,6.29-.7,6.62,1.79.08.59-.92,1.74-1.56,1.83-4.75.66-8.26,4.21-8.7,8.85l-.5,5.21ZM282.6,98c1.07-3.47,2.68-5.83,5.26-8.12-4.53-.82-3.77-5.03-5.52-5.62-1.08,2.54-2.3,4.78-4.52,6.52-.11.08-.35.4-.68.85,2.8,1.12,4.22,3.34,5.46,6.37Z"/>
  <path d="M288.31,267.56c-.05.59-1.36,1.67-1.85,1.49s-1.54-1.28-1.5-1.89l.45-7.04-.05-1.19c-.01-.24-1.04.11-1.2.32l-3.91,5.01c-.41.52-1.81.77-2.24.39-.48-.43-.48-1.64-.12-2.19l5.96-8.98.85-1.42-5.55,2.67c-.59.29-1.8.25-2.27-.27-.39-.44-.07-1.95.52-2.25l7.32-3.65c.49-.24,1.07-1.01,1.13-1.43l.65-4.28c.06-.39,1.07-.99,1.46-1.07,1.43-.29,1.69,2.04,1.28,5.11l4.04-1.49c.33-.12,1.53.7,1.48,1.04-.06.46-.57,1.43-1.01,1.65l-4.34,2.12c-.68.33-.14,2.8.03,3.17l5.34,2.93c.47.26.66,1.63.3,1.99-.47.48-1.84.67-2.49.43l-3.67-1.35-.24,5.66-.38,4.52Z"/>
  <path d="M201.71,190.65l-2.28,4.36c-.33.63-1.89,1.13-2.53.82-.61-.29-1.06-1.82-.69-2.43l3.13-5.13,4.19-7.48,4.72-9.17c.12-.24-.77-1.04-1.04-.92l-8.89,4.14c-.58.27-1.87-.21-2.07-.73s.24-2.05.78-2.32l5.38-2.73,7.03-2.37c.76-.26,2.38.71,2.71,1.35s.47,2.31.16,2.96l-4.28,9.1c-.2.42.1,1.4.47,1.72l4.32,3.77c.91.8,3.45,1.52,4.05,2.47.23.37-.21,1.7-.58,1.92-.47.27-1.9.3-2.34-.04l-6.59-5.08-.64-.77c-.11-.13-.87.06-.97.2l-2.27,3.16-1.75,3.2Z"/>
  <path d="M206.31,251.62c-.88-2.18.94-7.77,1.86-8.61.48-.44,2.31-.34,2.94-.63l3.44-1.59-1.24-2.27-.93-1.71c-.28-.51.89-2.21,1.47-1.97,1.37.56,2.5,2.66,2.7,4.6l4.48-1.1-2.18-3.96c-.16-.29.29-1.38.5-1.65.28-.36,1.62-.14,1.93.22.99,1.16,1.13,3.07.44,4.76l4.27-.6c-.52-1.34-.65-2.73.08-3.9l2.07-3.31c.2-.33,1.28-.53,1.67-.52.49,0,1.2,1.53.91,2.02l-2.72,4.55c.19.49.27.73.26.67l5.59-.8c.85-.12,2.23.12,2.79.73.65.71.87,2.52.3,3.35l-2.41,3.56c-.28.41-1.73.27-1.98-.17-.93-1.67,1.49-3.75.38-4.24-3.94-1.74-16.62,4.23-22.53,7.18l-1.1,4.41c-.15.6-.58,1.58-.96,1.96s-1.83-.47-2.04-.99Z"/>
  <path class="cls-3" d="M135.89,270.51c5.7-.93,7.94-5.11,9.5-3.25,2.03,2.41-9.88,9.99-14.75,4.34-3.32-3.85-.8-9.34,1.29-14.25-2.79-3.61-6.17-8.78-3.69-10.16.66-.37,1.92.32,2.27,1.06l3.07,6.41,5.07-5.07c.49-.49,2.27-.29,2.66.24s.01,1.9-.58,2.42c-9.5,8.32-10.69,19.21-4.85,18.26Z"/>
  <path d="M217.61,270.09c-.35.34-1.65.14-1.9-.22s.06-1.21.47-1.71l4.62-5.71c.41-.51-1.72-2.22-2.14-1.73l-1.75,2.05c-.39.46-1.71.9-2.16.54s-.56-1.76-.26-2.25l4.52-7.34c.5-.81,2.07-.49,2.94.13,1.3.92,2.72-1.48,5.07-.81.63.18,1.28,2.09,1.01,2.7l-2.52,5.68c4.53,2.81,7.78,2.08,9.89,2.82.38.13.58,1.33.38,1.67-2.44,3.99-11.28-2.61-12.51-1.41l-5.66,5.58ZM222.69,259.77l1.59-3.15-3.42.71-.02.85,1.86,1.58Z"/>
  <path class="cls-2" d="M306.61,124.22c-.04.38-1.38,1.29-1.68,1.1-.4-.25-1.09-1.05-1.15-1.65l-.54-5.53c-.24-2.43-2.86-3.38-4.79-2.95-.61.14-1.81-.63-1.81-1.18,0-2.29,6.22-1.55,6.77-6.28l.64-5.49c.06-.49.96-1.42,1.44-1.39,2.34.15.94,3.76,2.04,7.88.47,1.78,2.86,2.39,4.39,2.27.51-.04,1.47.67,1.61,1.14.68,2.19-5.67,1.32-6.36,7.27l-.56,4.81ZM305.49,116.28l1.6-2.55c.17-.27.96-.79.76-1.01l-.74-.82-1.71-1.89-2.38,3.07-.5.72c2.49.3,2.36,3.45,2.97,2.48Z"/>
  <path d="M152.77,172.51c-.86.32-1.62.84-2.13.86-.61.02-1.57-1.13-1.55-1.75s.87-1.85,1.46-2.08l10.39-4.02,6.88-2.3c.64-.21,2,.38,2.32.89.38.6-.34,2.15-1.15,2.45l-16.23,5.95Z"/>
  <path d="M260.4,255.73c.39.33-.7,1.95-1.22,1.61l-8.86-5.89c-1.42-.94-1.37-2.41-.34-3.56l5.02-5.65,3.27-3.38c.28-.29,1.68.21,1.83.57.19.46.15,1.58-.17,1.96l-6.09,6.99c-.15.17-.42.73-.45.93s.31.81.52.99l6.49,5.44Z"/>
  <path class="cls-3" d="M110.69,269.97c1.02-1.93,1.44-3.62,1.01-5.78-2.2.16-3.68.87-5.4,2.29-.52.2-1.47.36-1.91.18-.53-.22-.55-1.9-.08-2.29,3.11-2.66,7.08-4.02,9.51-1.94,4.47,3.83-2.54,14.22-5.17,12.37-.5-.35-.49-1.81-.08-2.29l2.13-2.53Z"/>
  <path d="M305.14,262.25c-.38.43-1.81.43-2.2.09s-.51-1.5-.15-1.98l5.22-7.25,4.2-6.22c.26-.39,1.62-.42,1.91-.11.35.39.7,1.61.42,2.15-2.5,4.78-5.8,9.28-9.39,13.33Z"/>
  <path d="M281.87,234.46c-.78.74-1.91,1.22-2.63.71-.55-.39-.46-1.95.04-2.46l3.11-3.23,6.12-5.98c.63-.62,1.87-.93,2.42-.53.77.56.88,2.06.22,2.69l-9.29,8.81Z"/>
  <path d="M213.82,234.24c-.3.21-1.19-.02-1.47-.24s-.48-1.61-.17-1.87l4.16-3.48,7.57-5.11c.56-.38,1.77-.56,2.34-.19s.49,2.07-.1,2.46l-6.54,4.32-5.78,4.12Z"/>
  <path d="M229.39,246.7c.64.09,1.64,1.18,1.69,1.74.28,2.88-5.34,4.63-8.88,3.42-2.17-.74-3.47-1.98-4.66-3.97-.35-.59.13-2.19.76-2.37,2.27-.65,2.39,3.32,5.47,3.7,3.2.39,4.55-2.66,5.61-2.51Z"/>
  <path d="M303.17,240.6c-.37.51-2.18-.4-2.25-.94-.07-.65.22-1.84.66-2.43l5.61-7.48c.33-.45,1.27-1.1,1.8-1.27.63-.2,1.66,1.75,1.25,2.32l-7.07,9.81Z"/>
  <path d="M305.66,248.69c-.33.44-1.85.31-2.12-.12s-.37-1.82-.01-2.28l5.87-7.61c.26-.33,1.14-.66,1.56-.67.52,0,1.38,1.59,1.04,2.07l-6.33,8.61Z"/>
  <path d="M180.27,162.46c.17.65-.14,2.02-.76,2.36-.56.31-2.17-.31-2.37-.97l-1.43-4.48c-.2-.61.77-2.07,1.4-2.19.92-.18,1.96.72,2.19,1.61l.97,3.67Z"/>
  <path d="M186.94,160.32c.11.6-.35,1.84-.82,2.03-.59.24-1.93-.35-2.13-.97l-1.3-4.2c-.21-.69.3-2,.86-2.38.68-.46,2.33-.05,2.47.71l.92,4.81Z"/>
  <path d="M292.96,240.24c-.15.28-1.31.27-1.55.06-.32-.28-.87-1.5-.68-1.9l2.68-5.47c.19-.4,1.31-.87,1.71-1.05s1.64,1.13,1.41,1.55l-3.57,6.8Z"/>
  <path d="M213.96,254.66c-.14.39-1.83.58-1.97.25-1.21-2.78.98-7.58,2.97-7.9.38-.06,1.42.81,1.28,1.19l-2.28,6.46Z"/>
  <path d="M283.31,243.01c.15.3-.46,1.34-.74,1.32-2.31-.19-4.16-3-5.01-5.76-.19-.63,1.62-1.76,2.14-1.46.61.35,1.15,1.11,1.69,2.15l1.92,3.74Z"/>
  <path d="M287.11,234.77c1.07,1.14,2.1,4.9.7,5.8-.43.27-1.89-.23-2.05-.71l-1.12-3.29c-.14-.4.38-1.39.66-1.69s1.53-.41,1.81-.1Z"/>
  <path d="M226.21,246.79c-.45.51-2.33-.24-2.77-.84-.41-.55-.75-1.9-.08-2.66.41-.47,2.13.09,2.58.5.57.53,1.36,1.77.28,2.99Z"/>
  <path d="M230.64,245.39c-1.34-.01-2.78-1.29-2.93-2.38-.05-.39.39-1.67.71-1.53l1.45.64c1.02.45,1.67,1.66.76,3.27Z"/>
  <path class="cls-3" d="M303.18,129.98c-.26-.56-.93-.8-1.48-.53-7.33,3.47-15.01,4.73-22.82,3.73-.27-.03-.61-.19-.96-.35-.35-.16-.75-.32-1.17-.43l.17-.19c.75-.83,1.49-1.65,2.25-2.46,2.7-2.9,3.13-7.08.98-9.52-2.14-2.43-5.72-2.66-9.15-.59-1.38.83-2.43,2.46-2.88,4.47-.44,1.96-.2,3.9.64,5.18.65.99,1.33,1.96,2.02,2.93l.38.55c-6.44,3.19-13.56,4.26-20.47,5.27-1.42.21-2.83.41-4.24.64-14.85,2.36-30.09,2.14-44.83,1.92-2.33-.03-4.67-.07-7-.09-4.89-.05-9.89-.48-14.71-.89-4.32-.37-8.79-.75-13.21-.86-11.56-.3-23.31-.18-34.68-.06l-1.97.02c-4.96.05-9.65.38-13.94.98-8.87,1.24-19.07,3.06-27.83,9.04-2.51,1.71-3.51,3.57-3.32,6.21.04.59.53,1.04,1.11,1.04.03,0,.05,0,.08,0,.61-.04,1.08-.58,1.04-1.19-.13-1.84.49-2.94,2.35-4.21,8.36-5.71,18.26-7.47,26.88-8.67,4.2-.59,8.8-.91,13.66-.96l1.97-.02c11.35-.12,23.08-.25,34.6.06,4.35.11,8.79.49,13.08.86,4.87.41,9.9.84,14.88.89,2.33.03,4.66.06,6.99.09,14.84.22,30.18.45,45.21-1.95,1.4-.22,2.81-.43,4.21-.63,7.33-1.07,14.91-2.18,21.86-5.82.54-.28,1.65-.12,2.55,0l.6.08c.27.03.61.19.96.35.47.22,1,.46,1.61.54,8.24,1.05,16.33-.27,24.06-3.92.56-.26.79-.93.53-1.48ZM273.38,132.03l-.78-1.11c-.67-.95-1.34-1.91-1.98-2.88-.51-.77-.63-2.09-.32-3.46.31-1.4,1.01-2.54,1.86-3.05,1.96-1.18,4.64-1.76,6.33.16,1.4,1.59.99,4.46-.94,6.53-.77.82-1.52,1.66-2.27,2.49l-.95,1.05c-.07.08-.12.18-.16.27-.26-.01-.52-.01-.78,0Z"/>
</svg>