<?xml version="1.0" encoding="UTF-8"?>
<svg id="_レイヤー_1" data-name="レイヤー 1" xmlns="http://www.w3.org/2000/svg" viewBox="0 0 1277.68 467.67">
  <defs>
    <style>
      .cls-1 {
        fill: #fff;
      }

      .cls-2 {
        fill: #ffc938;
      }

      .cls-3 {
        fill: #70d9ff;
      }
    </style>
  </defs>
  <g>
    <path class="cls-1" d="M58.45,33.51l-6.33,1.06-13.73,2.48-4.22.76-3.89.9-7.84,1.97c-3.03.76-7.08,15.86-8.42,23.95l-.28,8.24.05,4.27c0,.8-3.08,1.58-3.8,1.16-2.98-1.76-3.15-5.63-2.53-10.06l.46-3.31.65-3.98,1.16-4.74,1.32-5.44,1.14-3.8,4.69-12.35c.51-1.34,3-3.97,4.41-4.38.81-.23,2.98,1.38,2.91,2.23l-.15,1.87,1.46-.39,3.76-.95,5.12-1,9.23-1.75,19.82-3.4,4.26-.55.48-10.36.26-5.62-11.28,1.33-7.79.92-15.21,1.8c-1.58.19-4.34-2.91-3.23-4.39,1.48-1.97,4.29-2.33,6.33-2.43l8.4-.42,34.72-4.27,5.19-.71,6.11-.94,5.92-.9L102.52,0c1.02-.07,2.47,2.56,2.21,3.53s-2.13,2.38-3.17,2.5l-7.21.8-18.7,2.58c-.36.05-1.86.48-1.87.46-.02-.04.87,1.77,1.09,2.19l-.29,6.91-.26,6.12c-.02.37,1.66.09,2.12.03l6.22-.84,7.24-.92,9.75-1.13,6.97-.65,13.4-.21,3.28.88c3.83,1.03,9.16,4.28,9.54,9.87.24,3.57-.53,8.53-2.07,11.84l-3.92,8.43c-.67,1.43-2.89,3.73-4.53,4.99-1.01.78-4.54-2.13-3.8-3.16,4.78-6.7,9.33-15.63,8.01-22.58-.93-4.88-12.19-5.22-21.08-4.25l-9.02.98-10.32,1.25-11.11,1.35-1.3,1.75-.62,12.97-.52,11.37-.11,11.95c-.01,1.24-1.81,3.79-2.92,3.9-.88.09-3.25-2.19-3.25-3.26l.05-14.54.3-2.58.12-2.81.2-4.75.52-12.5-3.37.17-5.64.88Z"/>
    <path class="cls-1" d="M833.16,86.77c-3.47,10.72-15.44,18.51-26.02,20.92l-4.69,1.07-8.59.64-2.73,1.59c-1.69.17-4.88-3.04-4.66-4.77l.45-3.48-.04-11.69.74-12.86,1.06-13,.7-7.3.26-2.25,1.03-8.47.86-7.05.16-1.27c-.67-.79-1.9-3.24-1.42-3.9l3.08-4.25c1.11-1.54,4.19-1.77,5.03.56l10.18-1.07c.49-.05,2.17-.04,2.63.04l4.28.76,3.91,1.21c3.57,1.1,8.47,5.5,8.96,8.97s.12,7.56-1.15,9.64l-2.6,4.25-8.72,8.84c-1.69.71-1.17,1.21.44,1.06l6.53,2.31,3.47,1.76c6.41,3.25,9.09,10.83,6.86,17.72ZM794.36,66.63l6.24-1.57,4.66-1.4c5.29-1.59,10.04-5.13,13.05-9.75l3.17-4.87c.46-.7,1.16-3.27,1.26-4.2.33-3.13-3.35-7.33-7.12-8.08l-6.76-1.35c-.41-.08-1.96.14-2.42.23l-8.91,1.87-.5,4.15-1.08,9-.77,7-.81,8.96ZM802.44,103.19l4.07-1.1c8.69-2.35,19.18-9.29,20.86-18.01,1.23-6.37-3.02-11.11-8.69-12.44l-5.14-1.2c-1.57-.37-5.26-.41-6.89-.09l-5.19,1-7.47,1.44-.27,4.14-.32,5.05-.31,5.7-.34,15.84,3.79.12,5.89-.45Z"/>
    <path class="cls-1" d="M502.49,114.02l-4.14,2.31c-.77.43-3.12-.42-3.62-1.11-.62-.86-.29-3.71.64-4.13l3.12-1.41c4.91-2.23,10.11-6.81,12.79-11.68l2.28-4.14c2.59-4.7,1.32-12.35-1.98-14.1-9.96-5.28-22.93,1.61-32.04,9.16-.97.61-4.55-1.64-4.45-2.82l.45-5.29,1.11-5.85.83-3.99,1.35-5.66,1.87-7.1,1.89-7.19-8.81,1.76c-1.23.25-3.89.53-5.21.51-.39,0-1.28-1.54-1.27-1.92.09-2.58,2.22-3.56,5.18-4.19l3.78-.8,5.4-1.15c.64-.14,2.02-.57,2.52-.84s.65-1.34.99-2.5l2.68-9.07c.25-.84,1.51-2.93,2.25-3.37s2.64-.12,3.14.55.61,2.97.34,3.78l-1.34,3.93-1.98,5.78,2.36-.41,5.1-.88,5.08-.88,4.73-.77c.92-.15,2.93.54,3.64,1.11s.79,3.28-.02,3.71-2.24.78-3.77,1.05l-18.05,3.14-1.29,3.33-4.57,18.9-1.36,5.84-.41,1.89,15.64-6.68,4.25-.78c1.24-.23,4.49-.26,5.67.06l4.07,1.1c8.18,2.21,12.38,12.5,8.26,21.69-2.02,4.51-4.55,8.76-8.2,11.97l-5.9,5.2-2.97,1.91Z"/>
    <path class="cls-1" d="M1131.67,58.04l-4.54.67-6.5.96-2.85,7.42-9.27,23.84-3.34,8.89-2.15,5.88c-.4,1.09-4.19.88-4.49-.27s-.16-3.58.26-4.69l1.47-3.9,12.83-33.98c.18-.47.75-1.96.74-1.91l-3.69.6-6.74,1.61-3.16.74c-.72.17-2.57.2-3.3.09s-1.38-2.36-1.21-3.08,1.96-2.67,2.68-2.82l6.08-1.22,9.77-1.96c.78-.16,2.29-2,2.58-2.8l4.67-13.06,1.72-4.1c.15-.36,1.51-1.37,1.84-1.18l2.55,1.5c.98.58.21,3.37-.19,4.51l-4.25,11.91-.62,1.74,2.1-.27,7.91-1c5.35-.68,11.19-1.03,15.64,1.12s6.63,8.07,5.37,13.62c-1.64,7.23-3.4,13.85-6.97,20.1l-6.96,12.18c-1.02,1.78-4.09,4.41-5.9,4.4-3.55-.02-7.32-4.56-7.19-7.18.03-.63,1.84-2.41,2.37-2.06l2.41,1.62,1.57,1.06c2.08,1.41,15.98-23.16,14.32-36.42-.12-.94-2.92-3.15-3.86-3.11l-11.7.53Z"/>
    <path class="cls-1" d="M710.75,44.24l-.23,12.69c-.26,14.39-6.46,33.83-16.92,44.21s-25.75,12.13-34.61,1.16c-3.09-3.83-5.65-8.94-6.27-13.82l-1.25-9.79.05-9.45.55-6.36.57-5.6,2.47-13.38.51-2.69c.29-1.52,2.83-4.28,4.33-3.96.98.21,2.89,1.55,2.7,2.36l-.89,3.69c-2.73,11.31-4.15,22.72-3.9,34.54l.61,6.12,1.6,7.34c.42,1.93,2.13,4.8,3.4,6.59,6.11,8.61,18.88,6.55,24.87-.02l4.75-5.21c6.14-8.5,9.13-18.21,10.61-28.65l.45-3.19.46-4.7.08-9.54-.57-3.72c-.1-.67.67-2.18,1.12-2.69.6-.69,3.35-.76,4.01-.13.6.58,1.51,3.25,1.49,4.2Z"/>
    <path class="cls-1" d="M99.54,132.47l-3.24-4.48-1.57-2.17c-6.77,4.09-12.78,7.79-19.84,9.67l-7.48,2c-2.69.72-5.79.41-9.3-.18s-6.11-6.14-3.97-10.6c2.37-4.93,5.76-10.39,9.04-14.74l3.51-4.66-1.19-.48-4.34.85-16.9,3.3c-1.14.22-3.22.22-4.1-.13s-1.25-3.09-.62-3.77c.98-1.06,3.34-1.94,4.65-2.17l9.52-1.61,5.02-.94,7.66-1.43,23.05-4.2,9.02-1.57,3.17-.74c1.24-.29,3.89.84,4.47,2.17.49,1.12-1.22,3.42-2.42,3.59l-5.24.76-19.75,3.45-2.58.46c-.74.13-2.05,1.4-2.51,2.06l-5.04,7.24-8.14,12.55c-.39.59-.81,2.3-.9,2.83-1.07,6.46,22.22-.86,32.69-8.66l-1.75-4.07c-.36-.84,2.06-3.1,3-3.26.99-.18,3.25,1.61,3.66,2.54l1.67,3.83,9.7,15.03c.55.86-.82,3.68-1.77,3.78s-3.06-.53-3.67-1.37l-3.52-4.84Z"/>
    <path class="cls-1" d="M295.64,64.5l-7.81,1.1c-1.26.18-2.48,3.18-3.09,4.48l-7.01,15.07-5.83,13.71-.87,3.33c-.23.89-2.84,1.6-3.79,1.18-2.27-1-1.95-4.26-1.04-6.34l5.58-12.79,5.6-12.29,1.91-4.16-5.96,1.93-3.01,1.22-3.04,1.3c-.64.27-2.66.07-3.22-.36s-1.03-2.48-.72-3.1c.62-1.24,3.21-2.98,4.51-3.41l7.64-2.49,6.81-2.22c1.11-.36,2-3.35,2.52-4.43l3.52-7.29c1.47-3.05,1.94-3.85,5.48-4.15.82-.07,2.48,2.74,2.07,3.46l-4.38,7.64c-.31.54-.94,2.63-1.11,3.33l11.72-.65c.68-.04,2.86.87,3.42,1.11,7.61,3.21,10.86,10.68,9.27,17.11l-2.04,8.26c-2.11,8.52-10.46,23.66-18.37,27.18-1.13.5-4.28-1.05-5.37-1.95-1.52-1.26-2.5-4.61-1.52-6.06.47-.69,2.87-.5,3.52-.03l2,1.43c1.85,1.32,12.7-13.53,14.54-24.61l1.03-6.24c.85-5.14-2.81-10.13-6.95-10.19l-6.02-.08Z"/>
    <path class="cls-1" d="M203.22,74.72l-5.38-.67-.55,4.07-1.17,5.54c-1.73,8.2-9.53,20.85-17.65,25.65-2.39,1.41-6.66,1.27-9.21-.14-2.36-1.3-4.69-4.78-4.67-7.23l.03-5.84c0-1.22.66-3.88,1.1-4.96,6.09-14.75,21.6-25.47,37.68-22.25,15.05,3.01,21.87,18.82,16.63,31.59l-1.2,2.92-4.31,7.57-3.88,5.3c-.81,1.1-4.22,1.01-4.86-.14-1.89-3.37,7.34-9.28,8.86-18.13l.86-5.03c1.34-7.8-5.25-17.38-12.28-18.26ZM175.9,104.02c2.34-1.61,6.44-5.44,8.2-8.16l2.18-3.36,6.22-15.59-1.37-2.12-4.26,1.8c-4.65,1.97-8.8,5.47-12.22,9.71s-4.89,9.72-4.19,15.55c.17,1.44,3.45,3.54,5.46,2.16Z"/>
    <path class="cls-1" d="M478.44,457.44c.66-.82,2.13-2.68,2.04-2.56,1.35.8,2.18,1.35,2.38,1.02l.94-1.48,1.79-4.17c.14-.32.2-1,.37-2.29l-21.71.83c-1.16.04-3.44-.23-4.3-.79-1.03-.68-1.78-3.74-1.43-4.95l1.73-5.95.76-1.72c.12-.26-.37-1.03-.65-.96l-2.03.49-7.14,1.72c-.74.18-2.47.25-3.16.21s-1.26-2.59-.67-2.95c1.03-.63,3.18-1.51,4.19-1.72l5.04-1.02,5.03-1.02c.96-.19,1.78-2.99,2.12-3.97l2.84-8.19c.43-1.25,1.99-4.05,2.72-4.74,1.57.13,3.3.29,4.22.08l4.48-1.06,5.55-1.15,7.65-.94c1.8-.22,5.69,1.86,6.14,3.52.26.94.64,3.61.57,4.36l-.68,7.67,9.86-.28c.38-.01,2.12,1.26,2.25,1.62.19.57-.37,2.43-.97,2.45l-3.32.13-6.8.26c-.79.03-2.39,1.19-2.56,1.92l-.96,4.12-1.65,5.73c-.2.69-.89,2.63-.54,2.62l3.06.32c.75.08,2.14,1.22,2.5,1.88.48.88-1.48,3.05-2.46,2.77l-2.95-.83c-.94-.26-2.76,1.4-3.13,2.33l-2.65,6.57c-.42,1.03-2.47,3.49-3.56,3.76s-3.68-2.03-4.93-3.67ZM478.8,420.72c.23-.96,1.02-3.15,1.54-3.77.55-.65,3.36.83,3.2,1.67l-.66,3.65-1.1,4.89,10.42-1.11.76-3.59c.35-1.67.4-5.41.31-7.12-.03-.55-2.33-1.3-2.88-1.21l-3.21.52-7.01,1.12-3.98.89-5.3,1.43-1.46,3.83-1.07,2.92-1.39,4.31,10.09-1.31,1.74-7.14ZM476.83,443.78l10.6.19,1.27-2.75,2.79-10.67-2.43.16-8.51.89-.99,3.39-.89,3.06-1.56,4.47-.29,1.26ZM475.25,444.04l-1.41-2.17,1.3-5.96.83-3.8-2.94.49-6.84,1.15c-.84.6-1.87,3.76-2.14,4.93l-1.37,5.9,12.58-.54Z"/>
    <path class="cls-1" d="M202.74,430.41l-7.04,10.59-3.19,3.97-3.02,3.37c-.65.72-.69,2.63-.75,3.79l-.15,2.57c-.04.62-2.37.29-2.8-.16-.4-.42-1.81-1.59-2.29-1.3l-6.1,3.78c-6.05,3.75-12.67.97-12.79-2.2l-.19-4.82c-.02-.56.66-2.5.93-3.04l2.03-4.02c3.84-7.59,15.1-11.19,15.38-13.45l1.03-8.09.76-5.53c.22-.34.59-.98.25-.92l-2.35.46-6.18,1.24c-.43.09-1.66.07-2.08.03-.62-.07-1.24-2.41-.74-2.77,1.07-.77,3.56-1.85,4.75-2.09l6.83-1.35c.82-.16,1.45-2.4,1.7-3.17l1.39-4.37c.2-.63,1.79-2.08,2.32-2.36.56-.29,2.19,1.7,1.99,2.28l-1.09,3.15c-.24.69-.53,2.97-.49,3.15l8.59-1.38c.63-.1,2.55.02,3.15.22s1.11,1.76.79,2.3c-.44.72-1.78,1.41-2.9,1.57l-8.9,1.31c-.84.12-2.52,1.69-2.63,2.45l-.76,5.01-.96,6.33.72,1.21,11.52-2.48,2.71-4.05c.42-.62,3-.46,2.94.28l-.28,3.79c9.79,1.26,16.71,8.82,15.42,18.04-.26,1.87-.8,4.89-1.62,6.23l-6.12,9.97c-.51.83-3.27,1.79-3.77,1.03s-.28-2.67.23-3.41l3.72-5.36c3.64-5.24,4.62-12.88.78-17.78-2.03-2.59-6.16-5.11-10.73-4.02ZM186.96,444.93l7.48-9.02,2.19-3.64.62-2.14-6.01,1.65-4.43,1.21.14,11.94ZM178.3,451.81l5.08-3.53-.73-7.63-.25-5.7-3.7,2.47c-6.02,4.01-12.04,11.48-9.77,16.18.57,1.19,4.15,1.1,5.31.46l4.07-2.25Z"/>
    <path class="cls-1" d="M871.62,102.21l10.79-12.2,4.88-6.08,6.87-9.1,7.16-9.94,4.8-7.38,4.39-8.2c.25-.47.63-3,.57-2.74-.9-.25-2.37-.7-2.81-.69l-5.95.26-4.12.56-4.84.95-5.2,1.03-4,.97-3.98,1.19c-1.05.31-3.96-.7-4.25-1.79-.56-2.1,1.88-4.56,3.49-4.86l6.02-1.09,6.95-1.21,10.11-1.46,8.91.02c3.78,0,6.26,3.97,5.74,7.38-.14.9-.67,3.35-1.13,4.13l-8.31,13.88-5.63,8.06.07,1.74,5.96,5.62,9.83,9.27,8.5,7.4c.75.65,1,3.61.26,4.17-1.24.95-3.7.96-4.54.22l-5.34-4.72-15.97-15.11-2.92-2.71-3.9,4.84-3.55,4.4-4.94,5.93-8.01,9.26c-.75.86-2.65,2.06-3.7,2.27-1.26.24-3.08-3.28-2.21-4.27Z"/>
    <path class="cls-1" d="M967.16,65.67l-4.03.88-3.49.78-.03,14.79c0,2.81,1.46,7.21,2.9,9.72,6.44,11.24,24.73,6.26,36.64-.65.89-.23,3.66,1.96,3.27,2.77-.56,1.18-2.31,3.15-3.32,3.65l-4.63,2.26-11.67,3.62c-6.55,2.03-14.33,1.32-20.09-2.76-9.11-6.44-10.9-20.28-9.44-31.79l.88-6.94,1.35-8.07,1.19-6.76.92-5.07c.53-2.92,1.75-4.19,4.2-4.56.81-.12,2.52,1.73,2.36,2.53l-.92,4.8-1.31,6.79-.84,4.97-.69,4.51,4.28-.92,4.05-.87,6.65-1.41,7.34-1.55,5.91-1.25,5.12-1.08c1.17-.25,3.91,1.38,3.76,2.61-.36,3.05-2.79,3.5-4.93,3.84l-4.1.66-7.33,1.53-14,2.94Z"/>
    <path class="cls-1" d="M598.72,77.35c-1.99-7.61-8.12-11.4-15.13-11.16l-.94,4.86-1.49,5.68c-1.97,7.51-8.94,18.45-16.74,21.51-4.01,1.57-8.64-.49-10.39-4.19-5.05-10.69,4.74-24.45,16.79-30.73,14.5-7.55,30.44.44,33.2,11.85l.69,2.85c2.47,10.17-7.59,27.68-13.75,28.28-.88.09-1.94-2.86-1.35-3.61,2.42-3.1,6.83-8.31,8.02-12.3l1.27-4.27c.65-2.16.51-6.08-.19-8.76ZM562.32,92.89c9.63-4.86,13.78-15.57,15.86-25.98l-3.88,1.21c-6.84,2.12-12.94,7.84-14.79,14.79l-1.41,5.32c-.41,1.54,2.5,5.53,4.22,4.66Z"/>
    <path class="cls-1" d="M742.17,109.79c-5.73,1.4-16.96-1.67-16.52-7.11.09-1.08,2.42-2.89,3.38-2.31,3.55,2.16,7.05,4.66,12.48,3.85,6.06-.91,11.68-4.13,14.82-9.21,3.86-6.25.38-12.52-5.83-16.87l-7.19-5.04-4.08-2.95c-3.51-2.54-7.55-7.97-7.57-10.53l-.05-5.31c0-.39.45-2.42.66-2.75l4.86-7.73c.47-.75,2.49-2.41,3.24-2.88l5.18-3.23c1.49-.93,5.22-2.28,6.97-2.41l5.75-.44,4.34,1.12c1.63.42,4.53,3.15,4.94,4.86.22.9-2.28,3.47-2.9,3.33l-3.53-2.4c-5.69-3.87-19.18,2.96-21.63,9.05l-1.29,3.2c-1.74,4.32,1.25,9,5.72,12.23l3.52,2.53,5.51,3.8c7.56,5.21,13.47,12.92,10.52,21.4-2.57,7.38-8.97,12.8-16.32,14.6l-4.97,1.22Z"/>
    <path class="cls-1" d="M550.64,296.79l-1.16-3.97c-.49-5.99.56-13.02,1.95-18.35l-3.2.39c-.42.05-1.61.28-1.74.64l-.91,2.52c-2.14,5.92-4.8,11.62-8.13,16.93l-3.89,6.2-4.73,7.04c-.4.6-2.32,1.13-2.98.85s-1.28-2.43-.82-3.02l2.39-3.08,3.84-5.94,2.79-4.43,5.07-9.59,2.87-6.38-1.38-.36-5.06,1.27-5.37,1.37-5.82,1.51c-.7.18-2.8-1.08-2.75-1.83s.86-2.43,1.59-2.6l3.42-.78,17.64-4.02c.46-.1,1.39-.34,1.4-.73l.21-12.26.21-5.18.51-7.18c.05-.73.39-1.98.61-2.59s3.05-.93,3.27-.32c.31.87.55,2.77.5,3.59l-.79,13.16-.08,2.6-.05,7.12c-.67-.28.66.28,1.14.48l5.24-.87,5.05-.75,8.01-1.04,2.71.96c.61.21.45,2.91-.16,3.1s-1.21.32-2.89.53l-14.01,1.79c-.33.04-1.96.94-1.41.68.49,1.31,1.11,2.98,1.02,3.68l-.77,5.74c-.85,6.36.08,13.45,4.24,16.17,5.81,3.8,13.87,1.17,16.85-3.71l2.31-3.78c.46-.75,3.28,1.55,3,2.39-1.99,6.01-5.94,9.21-12.23,11.05-7.55,2.22-15.48-1.97-17.53-9Z"/>
    <path class="cls-1" d="M144.55,302.92l2.81,4.96,1.57,2.52c.34.54-1.15,2.17-1.72,2.44-2.87,1.36-8.51-10.23-10.32-17.67l-3.27-13.43-.67-4.54c-.09-.62-2.18.06-2.73.37l-2.14,1.17-7.85,4.82c-.55.34-2.93-.91-2.81-1.62.16-.91,1.75-3.12,2.63-3.59l8.2-4.42,3.62-1.92-.24-3.29-.67-9.1c-.1-1.31,1.87-4.07,3.18-3.7.65.18,1.81,2.43,1.8,3.08l-.04,5.83-.03,3.89,1.77.79,10.93-3.56c.73-.24,2.41-1.35,2.53-2.05l1.33-8.06c.13-.8.95-2.35,1.42-2.94s3.14.19,3.06.94l-.31,3.02-1.41,7.56,2.6-.27,8.31-.07c.58,0,2.65.82,3.27,1.06,5.12,1.98,7.75,7.52,5.04,12.88-2.23,4.4-6.26,8.12-11.02,9.82l-3.39,1.21c-1.07.38-3.83-1.82-3.43-2.91.78-2.14,7.77-.67,13.63-9.25,1.71-2.5,1.02-6.67-1.85-7.74-1.77-.66-5.21-1.3-6.89-1.07l-6.87.93-.59,6.18c-.08.87-1.58,2.43-2.54,2.98-.5.28-2.25-1.75-2.19-2.3l.76-6.07-7.98,2.8-3.79,1.33c-.59.21-1.32,2.5-1.16,3.16l4.58,18.72,2.84,7.1Z"/>
    <path class="cls-1" d="M381.3,86.36l-4.39,18.63c-.92,3.9,1.33,8.79-2.35,10.24-2.32.92-5.2-1.99-4.76-4.34,3.19-16.99,6.99-33.22,12-49.41l2.66-8.58.72-2.58-8.24,2.48c-1.26.38-4.24-.87-3.87-2.76.5-2.53,3.35-3.51,5.39-3.97l7.47-1.69c.9-.2,1.83-2.22,2.35-3.48l3.18-7.72c.34-.82,2.72-1.87,3.52-1.54s2.02,2.58,1.75,3.33l-2.56,7.12,10.51-1.82c.97-.17,3.17.12,3.85.55.73.46,1.26,3.24.61,3.81-.48.41-2.04,1.1-2.71,1.22l-10.26,1.85-3.4.79c-.77.18-1.53,2.34-1.76,3.1l-.92,3.08-3,10.06-1.11,3.92-4.67,17.71Z"/>
    <path class="cls-1" d="M540.9,451.56l-4.22,1.26c-1.63.49-3.78-2.37-3.74-4.68l.18-11.2.59-11.74.46-5.27.6-5.98c.1-.96,1.01-3.18,1.7-4.16.51-.72,3.32,1.15,3.29,1.59l3.66-1.45,3.04-.84,5.04-.86,4.94-.19c4.3-.17,8.3,3.63,8.16,7.72l-.5,14.96-2.6,16.32-.98,3.92c-.12.47-2.4.8-2.63.35l-1.08-2.16-6.49.55-6.06,1.11-3.35.76ZM543.57,432.51l-6.15,1.1v13.88s4.98-.66,4.98-.66l4.01-.54,11.36-1.5,1.67-12.08.77-17.47c.04-.89-2.11-3.12-2.92-3.08l-7.07.34-6.62,1.65-4.61,1.42-.73,7.38-.61,6.13,5.02-.85,6.02-1.02,6.56-.51c.36-.03,2.04,1.06,2.3,1.32.34.34.5,2.3.03,2.37l-2.19.31-11.8,1.81Z"/>
    <path class="cls-1" d="M416.16,267.12l-4.76.55-18.3,2.97-14.98,2.96-4.27,1.04c-.88.22-3.08.11-3.77-.48-.52-.44.11-3.22.78-3.36l3.02-.65,14.25-3.07c2.59-.56-.35-2.73-.32-8.87l.04-6.55-6.53,1.4c-1.04.22-4.04-.14-4.25-1.21-.3-1.57,2.61-3.21,4.09-3.44l5.95-.91,2.26-.44,5.98-1.17-.52-7.18c-.09-1.3.31-4.06,1.29-4.74.5-.35,2.83.4,2.87,1l.18,3.26.46,6.94,8.75-1.24,6.33-.9c1.35-.19,4,.26,4.31,2.05.23,1.29-3.12,2.55-4.42,2.62l-4.86.27c.23,1.15.65,3.2.38,3.93l-3.13,8.56-1.34,3.68,8.82-1.14,6.16-.8,4.72-.13c.49-.01,1.41,1.07,1.65,1.47.35.6-1.08,2.63-1.75,2.7l-9.1.88ZM400.86,264.77l4.31-10.95,1.25-5.27-2.34.33-12.36,1.92.24,6.9,1.15,8.35,7.75-1.28Z"/>
    <path class="cls-1" d="M957.96,285.5l2.17-7.69c.11-.06-1.81.8-2.18,1.06l-9.54,6.68c-.36.26-1.94.32-2.37.22-.65-.14-1.07-2.63-.52-3.01l7.51-5.08,5.81-3.57c.49.04,2.45.24,2.43.24l.65-2.76,3.86-16.46,1.86-7.95c.08-.35-1.15-2.1-1.2-2.46-.12-.86.69-2.79,1.54-2.95l3.59-.7,4.96-.98,4.98-.98,4.57-.9-.55-3.28-.81-4.8c-.15-.86,2.03-3.34,2.74-2.81,1.1.82,2.17,3.24,2.22,4.33l.2,5.09c.01.38,1.26.53,1.77.45l14.77-2.21c.74-.11,2.47-.03,3.04.18s.95,1.62.77,2.2c-.23.78-1.75,1.49-2.72,1.64l-22.42,3.57-5.7,1.28-7.33,1.74-.97,4.01-3.92,18.2-1.99,7.92-2.06,6.93-4.34,12.62-2.82,8c-.42,1.2-2.05,3.92-3.21,3.54-1.28-.42-1.59-2.72-1.26-3.62l6.47-17.69Z"/>
    <path class="cls-1" d="M1075.49,440.48c-5.31-.58-8.24-7.61-6.24-12.24l1.69-3.9c1.23-2.85,5.91-5.32,9.52-3.92-.29.53.45-.84.64-1.19l.58-8.18-5.39.65-5.1.84-4.65,1.01-5.44,1.18c-.99.21-2.84.15-3.74-.06s.35-3.56,1.25-3.75l9.6-1.99,8.84-1.51,4.79-.82.27-4.87c.06-1.01,1.41-3.11,2.32-3.71.45-.3,2.22,1.46,2.19,1.98l-.34,6.07,6.17-.75c.94-.11,3.54.98,3.82,1.89.34,1.11-2.38,2.45-3.55,2.51l-4.26.21c-.52.03-2.25.06-2.3.44l-.34,2.79-1.04,11.57,1.39,6.18c.17,9.83-3.37,21.52-9.54,28.32-.49.55-3.34-1.3-2.95-1.91l1.68-2.69c2.98-4.75,5.53-11.21,6.22-16.05l.33-2.33-1.49.73c-.46,1.17-3.55,3.63-4.92,3.48ZM1079.79,429.15l.15-3.27c.03-.72-1.43-1.77-2.16-1.84s-2.54.64-2.92,1.27l-1.64,2.74c-1.34,2.25-.8,7.33,2.37,7.82,1.97.14,4.09-4.75,4.19-6.72Z"/>
    <path class="cls-1" d="M734.46,449.02c.67-.31,3.25,1.29,2.9,1.96-1.91,3.72-10.44,4.82-15.33,1.47-8.99-6.15-1.65-18.89,7.24-27.01l-2.17.31-3.92.96-8.83,2.17-4.06,1.41c-.79.27-3.54-1.64-2.94-2.26l2.89-2.96,8.93-8.37-2.3-.4-2.62-3.41c-1.04-1.35-2.11-4.79-2.52-6.35l-.8-3.06c-.24-.89,3.01-2.34,3.32-1.47l1.88,5.31c.87,2.46,2.95,6.35,4.23,8.21.21.31,1.41-.93,1.75-1.26l12.03-11.49c.5-.48,2.36-1.64,2.7-1.08l1.7,2.84-11.32,10.37-7.54,6.91c-.31.29-1.14,1.45-1.21,1.57l2.27-.41,15.94-2.86c1.14-.2,2.7,2.97,1.73,3.7-8.25,6.21-16.65,12.64-16.01,22.3.1,1.52,3.18,4.07,4.7,4.08l4.33.02c.45,0,2.45-.94,3.04-1.21Z"/>
    <path class="cls-1" d="M393.04,310.63l-3.96,1.48c-.67.01-2.79-2.24-2.82-3.32l-.26-11.63,1.19-12.42.97-4.85c.1-.52,1.46-2.04,1.85-1.71l1.74,1.45c.38.32,1.08.92,1.11.92.04,0,1.25-.91,1.57-.99l5.97-1.42,4.24-.99c3.68-.86,8.52,2.89,8.49,6.81l-.06,7.72-1.02,10.03-.73,4.37c-.15.9-1.89,2.71-2.66,3.34l-2.43-1.64-8.39,1.81-4.8,1.03ZM398.25,291.3l6.34-1.15,2.72,1.08,1.18.16v-5.51c0-1.08-.55-4.22-1.57-4.31-2.14-.18-6.4.52-8.31,1.15l-4.04,1.34-3.01,1.11-.46,5.5-.16,1.95,7.31-1.32ZM397.65,305.31l5.09-1.03,4.65-.68,1.26-9.2c.83.25-.35-.11-1.18-.36l-8.11,1.34-3.11.51-2.15.59-3.66.86v9.03s3.84-.37,3.84-.37l3.38-.68Z"/>
    <path class="cls-1" d="M606.67,447.84c.42,1.05,3.31,2.53,4.43,2.5l3.47-.09,5.07-1.01,4.79-1.23c.49-.07,2.16,1.59,2.41,2.1-1.3,1.13-3.87,2.77-5.16,3.01l-6.42,1.19c-5.17.96-11.67-1.64-12.86-5.29-1.06-3.26-.12-7.68,1.88-10.02l6.24-7.33c-.18.73.2-.82.29-1.17l-7.09-.79c-.89-.1-1.91-3-1.61-3.8l2.17-5.82,1.16-3.1.66-2.11-4.76,1.13-2.42.57c-.74.18-2.27-2.25-1.78-2.83.89-1.07,3.59-1.99,5.03-2.22l5.28-.84c1.98-.32,1.61-4.98,5.67-7.91.41-.3,2.38,1.48,2.15,1.92l-1.73,3.29-.92,1.76,5.1-.47,4.6-.31c.62-.04.91,2.9.35,3.16-.64.3-2.56.88-3.3.97l-5.15.6c-1.05.12-3.6,1.1-3.98,2.1l-2.97,7.86c-.21.55-.76,3.01-.57,2.28l8.03,2.14,7.74-4.88c.53-.34,2.29-.04,2.77.37.63.55.05,2.84-.66,3.26l-2.62,1.57-4.31,2.27,1.43,4.98c.28.97-.04,3.2-1.06,4.34-.76.84-2.8-1.74-3.19-3.02l-.9-2.97-5.61,5.86c-1.45,1.52-2.39,6.11-1.64,7.95Z"/>
    <path class="cls-1" d="M1005.51,445.76c-1.4-2.22-1-6.16,1.48-7.21l5.48-2.34,1.44.18,1.52-.35,3.9-.29.27-4.53.4-7.61-4.77,1.07-4.8,1.08-2-2.15c-.2-1.1,2.56-2.75,3.73-2.9l3.47-.42,4.42-.87.12-8.68-8.4,1.79c-.52.11-2.46-1.35-2.29-1.85.28-.84,1.96-2.53,2.84-2.69l4.06-.77,3.75-.71c-.04-1.4,1.57-4.5,2.92-4.32.85.12,1.53,2.59,1.67,4.13,2.89.58,4.64-.67,6.23,2.03.35.6-1.12,2.16-1.82,2.14l-4.93-.13.07,8.42,3.31-1.07c.94-.31,3.84.09,3.82,1.08-.01.72-1.54,2.73-2.25,2.88l-5.11,1.1-.42,13.85,7.96,2.03c.73.19,2.34,1.28,2.61,1.97.15.39-.46,1.97-.87,2.03-.62.09-2.04.1-2.63-.05l-3.14-.79-4.59-1.15c-1.85,4.88-3.6,7.99-8.06,10.02-3.12.5-7.4-1.76-9.39-4.92ZM1015.41,445.79l3.31-5.71-6.18.13c-.62.01-2.7,1.21-3.44,1.72-.66.46.28,2.75.94,3.44.86.89,4.67,1.64,5.38.42Z"/>
    <path class="cls-1" d="M1108.03,283.83c-6.01,5.87-5.57,13-1.86,13.6,2.26.37,6.45.49,8.38-.05l5.81-1.62,2.22-.47c.53-.11,1.18,2.28.77,2.63-.75.63-2.99,2.22-3.89,2.42l-6.44,1.43c-1.69.37-5.41.21-7.29-.13-5.14-.92-7.88-5.74-6.34-10.77s4.79-8.88,8.62-12.53l-2.41-.48-2.45-.49c-1-.2-2.65-.76-3.45-1.22s-.83-3.32-.46-4.29l3.72-9.72-4.18.55-2.43.32c-.53.07-1.77-.31-2.24-.54-.7-.33,0-3.1.76-3.25l4.8-.98,4.93-1.01,2.9-6.14c.39-.83,2.91-1.66,3.22-.92s.43,2.22.1,2.99l-1.48,3.5,3.38-.34,3.74-.38,2.47-.25c.77-.08,1.38,3.1.62,3.29l-3.96.98-7.82,1.16-1.44,2.94-3.22,8.91,7.97,2.43,5.33-3.5c.76-.5,3.03-1.14,3.87-1.14.38,0,1.56,1.48,1.39,1.82-.26.51-1.17,1.74-1.66,2.04l-5.68,3.44,1.07,4,.62,2.34c.18.69-1.24,2.1-1.94,2.28-.87.22-2.19-1.91-2.39-2.8l-.67-2.93-2.97,2.9Z"/>
    <path class="cls-1" d="M878.71,445.46l-.52,6.48.06,3.21c.02.93-1.12,2.92-1.99,3.73-.51.47-2.58-1.49-2.53-2.2l.4-5.63.87-12.26-2.13,1.87-7.82,8.88-3.32,3.51c-.27.29-2.08-1.4-2.17-1.64l.59-2.48,4.03-4.08,9.5-12.92-5.42.91-7.59,1.93c-.65.17-2.3-1.88-1.9-2.42s1.78-1.83,2.5-2.01l13.86-3.59,1.36-6.65c.12-.57,1.9-1.63,2.54-1.64s1.53,1.76,1.45,2.48l-.54,4.8,8.19-1.58,1.82-.35c.61-.12,1.79.69,2.51,1.37.6.57-1.15,2.59-1.91,2.75l-4.07.88-4.13.89-2.64.57c-.06,1.01-.19,3.3.45,3.85l3.29,2.84,8.36,5.48c.72.47-.71,3.99-1.46,3.57l-6.42-3.52-3.43-2.87-1.29-.18-.49,6.01Z"/>
    <path class="cls-1" d="M1023.52,44.21c-2.12,4.3-11.08,9.3-19.29,4.81-5.43-2.97-6.89-12.14-4.75-16.23l3.66-6.99c.49-.93,3.07-2.49,4.19-3.09,5.86-3.14,14.16-.72,17.26,4.04,2.37,3.64,3.39,8.4,1.65,11.94l-2.72,5.52ZM1019.38,40.01l1.71-4.32c.98-2.47-.99-6.68-3.59-7.79-5.31-2.27-10.11.91-12.84,6.85-.44,5.17-.08,8.31,4.3,9.92,3.37,1.24,8.87-.74,10.42-4.65Z"/>
    <path class="cls-1" d="M414.36,424.9c-1.85-2.8-5.55-3.94-9.25-4.46l-.86,4.47-.86,3.11-2.28,4.82c-3.07,6.48-8.97,11.98-13.9,10.19-3.89-1.41-5.27-8.01-2.63-13.03,1.34-2.55,3.66-6.1,5.95-7.68l4.84-3.34c4.14-2.86,11.09-3.22,15.98-1.16,7.68,3.25,11.3,11.29,8.92,19.08-2.47,8.06-8.25,14.95-10.03,12.71-.46-.58-.48-2.37,0-2.96,5.47-6.74,8.85-14.63,4.14-21.73ZM389.47,438.98c7.13-2.5,9.78-10.77,11.7-17.51-.68,0-1.81-.04-2.12.13l-3.97,2.12c-8.79,4.69-8.67,16.34-5.61,15.27Z"/>
    <path class="cls-1" d="M787.31,293.67l-4.59,5.59c-.52.63-3,1.19-3.55.58-.69-.77-.42-2.7.36-3.58l5.71-6.39,4.91-6.06,7.28-10,5.04-8.33c.19-.32.15-.96.2-2.5l-15.17,2.83-3.15,1.1c-.48.17-2.14-1.57-1.98-2.07.27-.86,2-2.77,2.87-2.94l4.21-.85,4.21-.85,5.01-1.01c4.09-.83,8.11.36,9.02,2.5.5,1.16-.15,4.23-.89,5.39l-7.07,11.06-1.21,2.08,8.92,8.52,4.87,4.38,1.45,1.3c.44.4-.95,2.5-1.52,2.69-.83.27-2.93-.66-3.66-1.35l-8.19-7.8-4.71-4.49-8.38,10.2Z"/>
    <path class="cls-1" d="M858.33,270.28l1.09-3.31c.34-1.05,1.13-4.73.08-5.04l-4.66-1.42-2.64.16-3.55.76-3.47.73c-1.05.22-2.39,2.27-3.16,3.56l-5.09,8.57c-.4.67-2.51,1.47-3.12.98s-.79-2.58-.35-3.33l3.67-6.24,6.19-10.53c.39-.66,2.18-1.89,2.61-1.45l1.81,1.84c-.56,1.36-1.01,2.48-.71,1.74l12.13-.08c3.29-.02,6.3,4.57,5.32,7.65l-2.46,7.77c-2.78,8.77-17.87,32.86-21.66,30.09-.92-.67.4-3.54,1.11-4.47l5.72-7.42,5.85-9.09,1.13-2.14,4.15-9.32Z"/>
    <path class="cls-1" d="M728.1,298.13c3.66-5.66,6.14-11.7,6.33-18.25l.17-5.75-4.25.76-5.12,1.03-11.88,2.69c-.94.21-3.4-1.73-2.89-2.47.73-1.08,2.82-2.37,3.84-2.57l15.12-2.88,8.19-1.46,13.38-1.98,4.45-.62c.59-.08,2.55.92,2.89,1.43.37.55-.08,2.6-.74,2.7l-3.12.45-8.97,1.29-2.15.34-3.97.65-.28,4.34-.8,5.99c-.74,5.55-2.8,10.5-5.89,15.22l-4.79,7.33c-.64.97-3.98-1.31-3.39-2.23l3.88-6Z"/>
    <path class="cls-1" d="M1276.45,96.9c3.54,6.59-.98,15.21-8.83,18.39-4.98,2.02-9.88.63-13.22-3.43-5.04-6.13-1.94-16.02,4.96-20.02,6.05-3.51,13.92-.85,17.09,5.06ZM1271.59,104.84c.98-1.4.28-5.86-1.16-6.7l-2.9-1.7c-1.78-1.04-5.18-.23-7.24,1.68-1.89,1.74-2.98,6.15-2.74,8.28.34,3.13,6.61,5.7,9.46,3.38,1.79-1.45,3.2-2.96,4.58-4.94Z"/>
    <path class="cls-1" d="M475.46,296.07l7.66-2.82,1.68,1.24c.55.41-.57,2.77-1.22,3l-8.74,3.11c-3.98,1.42-10.99,1-14.44-1.67-4.02-3.12-4.61-8.76-1.93-12.97l3.39-5.32c.21-.33,1.65-1.07,1.47-1.39l-1.3-2.23-3.25-6.15-1.75-4.72-.91-2.67c-.21-.62,1.63-1.99,2.27-2.15.47-.11,2.16.58,2.25,1.05l.54,2.73.69,2.23,4.69,8.47,11.26-7.4c.42-.27,2.9.53,2.92,1.03.03.75-.56,2.55-1.23,2.94-7.66,4.4-14.42,8.67-18.13,17.65-.63,1.53,1.14,5.9,2.74,6.08l7.21.8c.81.09,3.34-.55,4.14-.84Z"/>
    <path class="cls-1" d="M616.63,289.1l.89-5.16c.09-.54.77-2.35,1.07-2.87l3.52-6.04,5.44-7.29-11.41,1.84-7.59,1.81c-.57.14-2.52-2.08-2.17-2.56.86-1.18,3.43-2.72,4.71-2.91l5.29-.77,6.4-.94,9.28-1.07c.73-.08,2.81,1.19,2.98,1.89s-.27,2.08-.77,2.61l-6.8,7.29c-2.63,2.82-4,6.19-5.52,9.83-2.43,5.82,1.19,12.38,5.03,12.48l3.71.1c.56.01,1.76.27,2.28.46.7.26-.01,2.53-.58,3.01-3.19,2.69-11.91.21-14.01-4.87-.76-1.85-2.02-5.27-1.75-6.85Z"/>
    <path class="cls-1" d="M816.72,443.77l9.42-2.53c.39-.11,1.86.84,1.76,1.24-.15.59-.86,2.23-1.39,2.45l-3.74,1.6c-6.82,2.91-16.86,2.19-19.72-2.44-1.98-3.21-1.52-8.43.41-11.24l3.96-5.77c.21-.42.27-1.67,0-2.1l-2.72-4.24-1.34-2.73-1.41-3.74-1.05-2.79c-.3-.8,1.6-2.26,2.73-2.39,1.01-.12,1.76,2.73,2.12,3.7l2.11,5.75c.44,1.2,2.52,3.7,3.23,4.34l11.77-7.05c.44-.27,2.64,1.57,2.44,2.05-.27.63-1.03,1.5-1.79,2.03l-10.14,7.16-3.72,3.43c-1.47,1.35-2.76,4.75-3.65,7.25-.7,1.95.97,4.97,3.13,5.54,1.81.48,5.65,1.01,7.62.48Z"/>
    <path class="cls-1" d="M1199.46,76.63l-8.38.95-5.61.7c-.55.07-2.66-.04-3.22-.15-.64-.12-1.76-2.16-1.4-2.71l1.92-2.94c.12-.18,1.26-.38,1.51-.4l6.1-.56,22.03-2.03,5.23-.36,6.94-.47,6.94-.04c1.16,0,3.03,3.12,2.36,4.08s-3,1.78-4.35,1.79l-6.51.05-3.59.19-19.98,1.9Z"/>
    <path class="cls-1" d="M317.71,455.16c-1.48,1.13-3.95-1.65-3.68-2.83l.71-3.11.76-3.23,2.16-8.89,2.07-7.83,3.81-13.3-4.22.77-2.45.45c-.74.13-1.26-2.98-.61-3.31,1.13-.58,3.2-1.44,4.14-1.66l3.71-.89c2.09-.5,1.66-4.4,5.09-7.61.44-.41,2.63,1.27,2.41,1.83l-1.01,2.56-.71,1.82,5.54-.86c.67-.1,2.38.17,3.02.36.85.26-.35,3.16-1.23,3.32l-4.96.92-3.62.67-2.19,6.69-1.4,4.65-3.03,11.06-.98,4.1-1.92,9.73c-.19.94-.54,3.95-1.43,4.62Z"/>
    <path class="cls-1" d="M995.38,255.09l3.84-.82c.53-.11,1.8.94,2.1,1.41.39.62-1.08,2.25-1.85,2.4l-4.97.95-6.8,1.29-1.72.33c-.53.1-.85-.76-1.69-2.35.13-.07-.25.14-1.16.62l-9.39,9.23c-.65.64-3.35-1.89-2.79-2.47l11.89-12.18,5.62-6.5,2.34-2.8c.4-.47,1.6-2.05,2.02-1.6l2.09,2.25,9.5,5.7,2.97,1.52,7.31,3.59c.73.36,2.14,1.44,3.2,2.31l-2.46,2.47-3.23-1.29-9.24-4.75-2.5-1.45-7.78-4.6-6.28,6.68c-.27.57-1.17,2.83-.89,2.16l9.87-2.1Z"/>
    <path class="cls-1" d="M285.89,292.12l-7.56,7.13c-2.54,2.39-8.02,4.82-11.78,4.38-4.09-.48-8.03-3.91-8.89-8.18-.73-3.64-1.52-7.64-1.04-11.32l2.23-17.08c.1-.75.91-2.28,1.28-2.83s3.18-.59,3.23.07c.1,1.22-.1,3.5-.28,4.86l-1.79,13.95c-.49,3.81.35,8.77,1.34,12.65.4,1.56,4.09,3.95,5.67,3.56,3.91-.97,7.3-2.85,10.05-5.44l5.08-4.79c.41-.38,2.6.01,2.57.57l-.11,2.47Z"/>
    <path class="cls-1" d="M1071.66,283.29c.49-.44,1.83-1.62,2.14-1.18l1.71,2.42c-3.94,4.74-8.82,9.28-15.04,11.43-5.51,1.9-11.31-.6-13.32-5.93-1.79-4.74-1.88-10.08-1.14-15.02l.59-3.9,1.14-7.48.61-2.65.86-2.74c.19-.62,3-.92,3.29-.35.38.75.47,2.71.31,3.61l-1.89,10.58-.59,13.02c-.11,2.52,2.42,6.34,5.01,6.66,3.22.4,7.67-.85,9.86-2.79l6.44-5.69Z"/>
    <path class="cls-1" d="M278.6,443.72l-1.9,5.55c-1.01,2.95-4.77,6.29-7.93,5.44-4.16-1.13-7.23-4.41-7.03-8.61.09-1.9,3.02-5.3,4.83-5.77l4.77-1.25h3.46s.27-7.21.27-7.21l.23-6.03c.03-.92,2.08-2.93,2.94-2.66s1.25,2.69,1.2,3.62l-.58,12.99,3.51.43,3.93,1.01c.67.17,1.48,1.66,1.54,2.34s-1.81,1.92-2.52,1.75l-6.74-1.61ZM270.6,450.29c2.03-1.42,3.62-4.61,3.64-7.11-2.79-.03-6.55.88-8.25,2.01-.55.36-.37,2.66-.02,3.22.66,1.07,3.65,2.58,4.63,1.89Z"/>
    <path class="cls-1" d="M482.61,402.67l-10.57,1.89-7.77,1.39-2.23,1.68-5.47,10.61c-.46.9-3.68-1.11-3.2-1.96l1.93-3.4,5.01-10.98,1.86-4.8,1.04-3.4c.25-.81,1.18-2.41,1.82-2.95.8-.68,2.95,1.97,2.57,3.01l-1.19,3.24-1.3,4.67,14.58-2.45,6.92-1.05,9.7-1.34c.85-.12,2.48.28,3.12.61s.67,3.01-.04,3.12l-2.91.49-9.2.92-4.67.71Z"/>
    <path class="cls-1" d="M223.26,284.15c-.14,1.23-3.46,2.62-5.15,2.45l-.81-2.98c1.09-.67,1.8-.98,1.82-1.37.03-.59-.1-2-.28-2.58l-1.18-3.95-2.26-7.55-2.96.65-5.08,1.14-4.14.98c-.94.22-2.91.04-3.78-.26s.42-3.45,1.41-3.68l13.35-3.07-.48-4.99c-.07-.77,2.34-3.26,2.82-2.63.76,1,1.85,3.32,2.2,4.33l.66,1.87,8.81-1.69c.75-.14,2.65,2.19,2.09,2.71s-2.03,1.56-2.77,1.71l-3.13.67-4.72.95,2.37,8.38,1.11,3.96c.27.97.25,3.45.08,4.94Z"/>
    <path class="cls-1" d="M344.82,83.02c-.25.62-2.29,1.51-2.92,1.28s-1.92-1.14-2.15-1.78l-1.81-5.07-3.45-10.56-5.25-16.04-1.31-3.49c-.31-.82,1.6-2.74,2.57-2.99,1.04-.27,3.55,1.46,3.9,2.57l8.15,25.91,1.96,6.24c.28.89.65,3.08.3,3.93Z"/>
    <path class="cls-1" d="M247.7,443.79c-2.32.21-3.05-3.05-2.59-4.62l1.25-4.22,1.41-4.75,1.92-5.95,2.3-6.21-2.83.65-2.87.67c-.67.16-2.45-.38-3.01-.81-.75-.57.7-2.9,1.61-3.14l2.57-.66,4.28-1.09c1.08-.27,2.38-2.08,3.05-3.28l2.48-4.47c.25-.45,2.93.47,2.79.97l-.61,2.19-.96,3.43,4.63-1.1,1.74-.41c.37-.09,1.23.73,1.43,1.06.22.37.28,2.07-.11,2.26-.59.29-1.98.86-2.63.99l-4.39.85c-.92.18-2.84,1.53-3.19,2.53l-2.51,7.14-1.3,3.89-1.9,6.34c-1.25,4.18.15,7.51-2.53,7.76Z"/>
    <path class="cls-1" d="M984.89,278.97l-5.96,1.82-.25,4.15c-.02.39-.6,1.62-.8,1.97-.29.53-2.27-.38-2.5-.94-.2-.48-.5-2.62-.43-3.15l.79-6.12.81-6.31c.28-2.19,1.58-4.47,3.65-4.99l8.01-1.86c1.13-.26,3.95,2.92,3.89,4.02l-.85,15.14c-.07,1.22-1.7,4.01-2.82,4.12-1.05.11-3.14-2.77-2.56-3.66.32-.5,1.29-1.87,1.35-2.23l.46-2.82-2.79.85ZM980.14,276.84l7.81-1.59.34-7.8c-.22-.12-2.99.03-3.85.34l-3.24,1.16c-.37.13-.56,1.24-.79,2.66l4.1-.91c.71-.16,3.31.74,2.75,1.19-4.55,3.68-8.95,1.54-7.12,4.95Z"/>
    <path class="cls-1" d="M1045.76,77.62l-6.39.93c-1.96.28-4.98.62-6.3-1.6-.73-1.24,1.5-4.37,2.79-4.46l3.27-.23,12.21-1.27,7.42-.74,8.49-.74c.92-.08,3.57,1.14,3.5,2.01-.09,1.09-1.01,3.04-1.73,3.97-.17.22-1.79-.06-2.08-.12l-12.83,1.23-8.36,1.03Z"/>
    <path class="cls-1" d="M65.7,88.48l-5.57,1.25-4.48,1.01-1.84-.71c-.61-.23-1.21-2.92-.78-3.43,1-1.18,3.88-2.22,5.4-2.5l10.54-1.93,5.59-1.03,5.9-1.08,5.14-.95c.87-.16,3.18-.24,4.01-.08s1.55,1.79,1.8,3.05c.17.83-2.09,2.24-2.92,2.34l-4.08.5-4.29.64-5.9,1.16-5.03.99-3.49.76Z"/>
    <path class="cls-1" d="M970.46,454.78c-.34.67-1.92,1.53-2.56,1.61s-2.17-1.41-1.84-1.96l1.47-2.46c4.63-7.74,7.72-15.98,8.97-25.03l.57-4.11-.02-10.05c0-1.74.7-3.69,1.64-5.01,1.45,1.11,2.46,1.76,2.49,2.3l.27,4.9-.04,5.96c-.05,7.78-2.17,14.68-4.94,22.12l-5.99,11.73Z"/>
    <path class="cls-1" d="M892.47,296.82c-.23.78-2.32,3.22-3.03,2.76-.99-.64-2.77-2.6-2.94-3.54l-.62-3.55c-.3-1.7-.38-5.5-.19-7.33l1.05-9.91.66-5.29,1.64-7.1c.22-.94,1.81-3.17,2.63-3.64.77-.44,2.69,1.82,2.46,2.65l-2.11,7.7-1.44,9.38-.6,3.89.03,8.53c0,.37.52,1.45.79,1.34l1.5-.55c.38-.14,1.15,1.29,1.04,1.68l-.89,2.98Z"/>
    <path class="cls-1" d="M435.48,102.82l-5.4.83c-1.21.19-4.19.28-5.39.04l-5.15-1.02-4.39-1.69c-3.94-1.51-7-4.77-5.34-8.1,2.11-4.24,7.51,4.89,14.37,4.82l7.9-.08c.38,0,1.89-.63,2.58-.9,1.18-.47,4.33.97,4.49,2.43.13,1.23-2.42,3.48-3.66,3.67Z"/>
    <path class="cls-1" d="M324.14,286.3c.4-.49,3.1,1.35,2.82,1.86l-5.98,8.33c-.79,1.1-2.15,2.34-3.09,2.8-3.35,1.63-7.89-5.3-8.43-13.25l-.56-8.17c-.07-1.01,1.51-3.8,2.55-4.09.87-.24,2.19,2.19,2.21,3.1l.24,9.4c.05,1.92,1.61,5.85,2.5,7.47.27.5,2.28-.82,2.64-1.26l5.1-6.2Z"/>
    <path class="cls-1" d="M1154.79,300.86c-2.68,1.9-5.99,1.76-8.57.22-2.4-1.43-3.86-5.18-3.05-8.23.5-1.86,2.61-5.01,3.99-5.93,3.21-2.15,6.36-2.1,9.48-.19,2.37,1.46,3.82,5.38,2.74,8.12-.86,2.19-2.56,4.56-4.59,6ZM1148.76,297.57c3.15,1.62,7.48-2.26,6.73-5.53-.24-1.06-3.03-3.18-4.01-2.8-1.51.58-3.9,2.7-4.83,4.13-.61.94,1.11,3.68,2.1,4.19Z"/>
    <path class="cls-1" d="M1127.45,450.05c-.73.8-2.98,2.49-4.07,2.91-3.03,1.14-6.89-.28-8.57-2.86-2.33-3.58-1.01-8.78,3.03-11.75,2.85-2.1,6.7-1.84,9.66.5,3.66,2.9,3.05,7.82-.05,11.2ZM1125.11,447.01c.73-.72,1.11-3.66.61-4.44-.98-1.55-5.19-2.13-6.07-.74l-2.23,3.53c-.48.75,1.26,3.32,2.09,3.66,1.19.5,4.23-.66,5.59-2.02Z"/>
    <path class="cls-1" d="M1011.58,298.82c.86,1.99.1,5.39-1.65,6.61-.96.67-3.38,1.63-4.38,1.52l-3.8-.41c-5.02-.54-10.43-5.41-12.6-10.25l-1.62-3.6c-.35-.78,2.1-2.76,2.75-2.67l2.63,4.52c1.89,3.25,5.45,7.16,9.28,7.51l3.5.32c.39.04,1.6-.53,1.73-.9l.58-1.63.79-2.23c.17-.49,2.55.64,2.79,1.2Z"/>
    <path class="cls-1" d="M768.02,445.06c2.61-2.09,6.26-6,6.98-8.55.2-.73-1.34-3.09-2.08-3.21-1.31-.21-4.48-.19-5.7.3l-5.79,2.32c-.51.2-2.42-1.65-2.05-2.07.91-1.01,3.31-3.09,4.54-3.4l3.35-.84,4.15-.66c1.57-.25,6.56,2.3,7.28,4.93,1.47,5.37-3.03,10.45-8.45,13.74-.8.49-2.96-1.98-2.22-2.57Z"/>
    <path class="cls-1" d="M420.45,67.76l-6.13,2.28c-.44,0-2.73-1.7-2.87-2.39-.3-1.48,2.49-4.09,3.97-4.43l5.02-1.15,6.02-1.39c4.66-1.07,8.25-.09,8.55,2.94.09.92-1.71,2.69-2.68,2.74l-8.74.45-3.14.95Z"/>
    <path class="cls-1" d="M865.17,405.64h-3.56s.78-3.42.78-3.42l22.44-13.19,2.23,1.74c.67.52-.84,2.63-1.57,3.09l-6.93,4.29-9.12,5.1-4.27,2.39Z"/>
    <path class="cls-1" d="M916.2,446.53l-6.41,6.59c-.44.46-2.31,1.05-2.94,1.13-.84.1-1.58-2.48-1.01-3.06l8.27-8.45,9.47-10.87c.72-.83,3.37,1.95,2.65,2.83l-7.74,9.47-2.29,2.38Z"/>
    <path class="cls-1" d="M732.47,254.74l-7.79,1.6c-.87.18-2.33.04-3.08-.24-.95-.35-.22-3.91.78-4.09l4.46-.83,18.24-2.97c1.11-.18,3.37,2.63,2.68,3.19s-2.22,1.22-3.18,1.38l-12.1,1.96Z"/>
    <path class="cls-1" d="M219.86,304.4c1.78,2.41-6.2,4.6-12.38-.13l-4.69-3.59c-.73-.56-2.25-2.77-2.6-3.62l-1.46-3.5c-.32-.78,2.15-3.18,2.64-2.49l2.48,3.52c2.24,3.17,5.82,5.81,9.22,7.67l5.68.64,1.11,1.5Z"/>
    <path class="cls-1" d="M963.65,425.24c1.16-.36.37,3.68-4.46,6.94-1.19.8-3.8-2.97-3.96-4.07l.09-8.02,1.09-5.29,1.04-3.7c.14-.51,2.07-1.51,2.39-1.09l1.49,1.96-1.2,5.57-1.09,9.14,2.36-.74,2.25-.71Z"/>
    <path class="cls-1" d="M103.22,65.24c-.89.59-3.79.91-4.75.59l-6.68-2.22c-1.47-.49-3.86-2.22-5.52-3.86-.91-.9,1.75-4.59,2.9-4.04l6.37,3.08,4.86,1.62,3.34.87c.77.2.13,3.52-.53,3.95Z"/>
    <path class="cls-1" d="M52.12,68.58c-.06,1.58-3.04,4.17-4.61,3.92l-5.65-.88c-2.13-.33-6.15-2.88-7.23-4.81-.54-.98,1.69-3.95,2.32-3.99l8.24,4.04,4.26-.71c.64-.11,2.69,1.78,2.67,2.43Z"/>
    <path class="cls-1" d="M100.05,48.16l-10.34-4.31c-.88-.37-1.2-3.38-.61-4.14,1.09-1.4,3.61-1.54,5.02-.89l7.81,3.61c1.13.52,2.77,2.06,2.84,3.14.1,1.69-2.61,3.45-4.71,2.58Z"/>
    <path class="cls-1" d="M53.6,51.39c.64.38-.46,4.11-1.21,4.13s-2.14-.03-2.86-.33l-3.05-1.28-3.6-1.5-5.01-2.89c-1.84-1.06,1.15-5.17,2.16-4.91.82.21,2.13.77,3.38,1.4l6.53,3.25,3.66,2.14Z"/>
    <path class="cls-1" d="M907.47,413.47l-3.23,3.31c-.25.25-1.56,0-1.87-.18-.46-.28-.84-2.27-.41-2.72l9.83-10.4,4.63-5.29c.35-.4,2.51.15,2.59.7.11.73-.08,2.35-.55,2.91l-2.43,2.9-8.56,8.78Z"/>
    <polygon class="cls-1" points="904.62 433.91 902.51 431.03 907.39 426.81 916.21 418.82 920.44 414.86 922.48 418.02 908.76 431.23 904.62 433.91"/>
    <path class="cls-1" d="M1010.49,276.08c-.12,5.71-2.33,9.16-3.64,8.37l-1.84-1.11c-.4-.24-1.14-1.51-1.1-1.98.06-.71,1.28-1.41,2.52-2.04l.41-13.98.09-2.7,2.68-.3c.55-.06,1.12,2.09,1.11,2.71l-.23,11.03Z"/>
    <path class="cls-1" d="M345.28,292.72c-.68.66-2.81-1.69-2.98-2.6l-.79-4.21-.99-4-1.73-5.71c-.16-.53.77-1.95,1.23-2.33.61-.51,3.07.65,3.27,1.42l2.72,10.35.66,2.51c.26.97-.38,3.57-1.38,4.56Z"/>
    <path class="cls-1" d="M563.34,261.08c-.65.83-3.04,1.72-3.58,1.14-.72-.77-.55-2.79.11-3.64l6.19-7.96,3.41-4.59c.4-.54,3-.25,3.12.47.16.95-.26,2.98-.89,3.79l-5.18,6.68-3.19,4.12Z"/>
    <path class="cls-1" d="M924.93,288.78c-.29,1.44-3.21,3.01-4.46,3.16-1.5.07-4.04.31-4.97-.03l-5.23-1.92c-.83-.31-2.73-2.2-3.31-2.91-.3-.37.02-2.36.37-2.68,2.62-2.42,6.08,5.06,11.65,3.49l3.49-.98c.39-.11,2.53,1.42,2.44,1.87Z"/>
    <path class="cls-1" d="M358.8,445.11l-4.5,1.69c-4.24,1.6-9.75-.68-13-3.76-.78-.74.35-3.4,1.57-4.19,3.14,4.28,10.05,4.7,14.33,3.11.79-.29,2.26,2.89,1.59,3.15Z"/>
    <path class="cls-1" d="M537.22,264.39c.24.47-1.35,2.7-1.59,2.6-1.54-1.09-4.01-3.17-4.7-4.47l-3.53-6.71c-.52-.98-.2-3.54.63-4.39.72-.74,2.81.43,3.21,1.37l2.19,5.18,3.79,6.42Z"/>
    <path class="cls-1" d="M919.42,268.15l-6.18.3c-.47.02-2.11.66-2.55.85l-1.77.76c-.35.15-1.23-.82-1.76-1.54-.76-1.03,1.61-3.58,2.92-3.79l6.42-1.05,4.14-.29c.95-.07,2.82,2.35,2.31,3.16s-2.48,1.55-3.53,1.6Z"/>
    <path class="cls-1" d="M974.39,307.02c-1.08.08-2.45-3.04-2.06-3.97l2.42-5.8,2.03-4.86c.29-.7,2.82-1.38,3.17-.71.47.88.31,2.35-.14,3.48l-2.79,6.99c-.52,1.31-.61,4.73-2.62,4.87Z"/>
    <path class="cls-1" d="M671.5,306.04c-.46.51-2.92-.35-3.35-.92l-3.83-5.06-3.16-4.15,1.93-2.3c.54-.64,2.24.95,2.87,1.76l5.96,7.67c.29.38,0,2.55-.41,3.01Z"/>
    <path class="cls-1" d="M888.42,415.04c-.3.5-1.22,1.43-1.63,1.77s-2.06-.32-2.08-.85c-.03-.72.3-2.14.65-2.79l3.31-6.18c.63-1.18,2.42-3.49,3.47-4.49.34-.15,2.47,2.28,2.43,2.46l-3.82,6.28-2.32,3.81Z"/>
    <path class="cls-1" d="M662.98,454.71c.52.67-.35,3.22-1.05,3.02s-2.56-.98-3.01-1.55l-5.52-7.11c-.64-.82-1.63-2.22-1.18-2.64l1.83-1.72c.6-.56,2.11,1.14,2.75,1.98l6.18,8.02Z"/>
    <path class="cls-1" d="M354.99,424.88l-3.95-.41-7.41,2.19-1.45-1.25c-.71-.61.74-3.02,4.11-3.81l3.25-.76,4.83-.51c.57-.06,2.47,1.66,2.16,2.14l-1.54,2.41Z"/>
    <path class="cls-1" d="M291.28,416.16c.44.27,1.03,1.74,1.02,2.32-.01.76-2.25,1.89-2.85,1.53l-5.58-3.39-3.91-2.4c-.56-.34,1.48-2.89,2.1-2.66l2.71.97,2.66,1.2,3.86,2.42Z"/>
    <path class="cls-1" d="M774.52,243c.29.73.51,2.47.38,3.24-.16.97-3.15.86-3.53-.08l-2.03-5.04-1.13-2.74c-.31-.76,1.42-2.96,2.22-2.78s2.07,2.29,2.39,3.09l1.7,4.3Z"/>
    <path class="cls-1" d="M649.2,266.03c-.63.45-2.96.1-3.24-.62l-1.75-4.44-1.48-4.05c-.24-.65,2.93-2.08,3.22-1.46l1.57,3.34,1.93,4.11.72,1.53c.13.28-.69,1.39-.96,1.58Z"/>
    <path class="cls-1" d="M658.5,265.18l-3.55-4.71-1.75-5.24c-.53.25.57-2.69,1.48-3.31.83-.56,2.62,1.86,2.97,2.86l1.72,4.92-.86,5.48Z"/>
    <path class="cls-1" d="M765.27,248.63l-2.69,2.67-2.41-4.08-1.38-2.99c-.39-.84-.74-3.16-.62-4.09.05-.34,1.75-1.35,1.79-1.37.04-.02,1.24,1.1,1.39,1.43l2.16,4.64,1.76,3.79Z"/>
    <path class="cls-1" d="M869.64,418.05c.46.72-1.64,3.39-2.33,2.82-5.19-4.28-6.84-11.15-3.91-11.43.94-.09,2.15,2.14,2.69,2.99l3.55,5.62Z"/>
    <path class="cls-1" d="M879.25,411.65l1.05,2.74c.27.7-2.22,2.06-2.71,1.46s-1.73-2.28-2-2.91l-1.31-3.07c-.29-.67-.16-2.63.07-3.32s2.51-1.18,2.77-.49l1.13,2.98,1,2.62Z"/>
    <path class="cls-1" d="M1001.26,275.02l-1.38,1.96c-.34.49-2.33-.76-2.36-1.35l-.35-5.79c-.07-1.16,1.06-3.72,1.77-5.08l2.12,2.56-.3,5.29c.21.35.76,2.04.5,2.41Z"/>
    <rect class="cls-1" x="1016.83" y="283.45" width="4.23" height="9.84" transform="translate(28.38 662.79) rotate(-36.51)"/>
    <path class="cls-1" d="M954.84,267.61l-3.29-2.85c-.4-.35-1-1.66-1.16-2.15s1.78-1.83,2.28-1.67c3.4,1.11,6.34,4.32,5.59,6.73-.27.88-2.72.53-3.41-.06Z"/>
    <path class="cls-1" d="M1008.29,291.54c.32.37.13,2.54-.31,2.75s-2.45.39-2.76,0l-3.31-4.26c-.38-.49,1.98-2.33,2.66-2.69l3.72,4.21Z"/>
  </g>
  <path class="cls-3" d="M646.3,320.26c-38.59-2.69-76.23-2.13-113.69,1.38l-57.21,5.36c-48.23,4.52-95.85,5.31-144.28.97l-58.38-5.24c-51.47-3.6-103.23-.7-152.35,7.75l-16.19,3.76c-1.34.31-3.27.69-4.26.47s-2.4-1.22-2.59-1.76c-.22-.66,2.26-2.07,3.56-2.28l16.75-2.71c42.31-7.59,87.18-10.83,132.2-9.4,75.8,2.41,112.28,15.59,212.75,6.61l88.04-7.87c48.59-3.48,95.65-1.71,142.84,4.75,68.46,9.37,113.78,11.72,183.97,3.31,40.26-4.82,80.68-5.68,120.99-1.35l57.29,5.24c34.21,1.7,67.73-1.24,97.93-9.35,1.18-.32,2.57-.66,3.34-.76.97-.13,2.6.91,2.74,1.42s-1.23,1.52-2.34,1.82c-46.65,12.71-96.01,12.27-146.85,5.97-38.68-4.79-77.05-5.65-116.26-1.66l-41.66,4.24c-45.47,4.63-90.43,3.12-135.2-2.77-23.78-3.13-46.04-6.17-71.13-7.92Z"/>
  <path class="cls-3" d="M875.23,457.64l.92-.39,115.14-4.63c2.21-.13,4.58,1.67,4.67,3.34.07,1.29-1.97,4.09-3.43,4.19l-144.8,7.51c-1.33.09-2.94-3.77-2.41-4.96.45-1.01,2.14-2.97,3.3-3.06l26.61-2.01Z"/>
  <path class="cls-2" d="M1207.81,281.27c-.11,2.22-.79,6.26-2.2,6.98-5.8.25-.34-8.36-5.03-15.59-3.72-5.73-17.95-1.6-10.26-8.48,9.63,1.2,14.8-6.6,14.64-15.48l.8-3.71c.21-.97,3.72-.79,3.78.22l.72,11.63c.51,8.29,12.78,5.95,13.89,8.94,1.88,5.07-15.53-.99-16.34,15.5ZM1206.03,272.06l4.81-5.73-4.26-5.58-4.9,5.96,4.34,5.35Z"/>
  <path class="cls-3" d="M1239.12,333.23c-.11.78-2.42,1.95-2.86,1.43-3.25-3.77.45-10.27-3.05-16.21-3.22-5.48-11.96-1.84-12.7-5.89s11.12-.07,14.97-9.71c3.05-7.63.87-13.15,4.61-14.11,4.48-1.15-.72,10.24,4.81,18.17,2.89,4.14,9.92,2.07,11.79,4.63.59.81-1.4,3.32-2.5,3.19-6.15-.74-12.77,2.68-13.79,9.7l-1.28,8.8ZM1238.25,317.7l5.44-5.46-4.73-6.81-5.64,6.81,4.93,5.47Z"/>
  <path class="cls-3" d="M570.38,457.75l-125.22,7.74c-1.29.07-3.36-1.2-3.76-2.15-.48-1.13,1.72-3.75,3.14-3.82l124.63-7.61c1.4-.07,3.69,1.8,3.96,2.85s-1.6,2.93-2.75,2.99Z"/>
  <path class="cls-3" d="M56.62,244.2l-20.1-13.23c-.81-.53-1.89-2.22-2.11-3.12-.27-1.09,3.1-3.01,4.23-2.24l20.88,14.42c.81.56,1.28,3.44.58,4.07s-2.66.64-3.49.1Z"/>
  <path class="cls-3" d="M52.12,268.72l-25.38,2.86c-.95.11-3.72-1.37-3.29-2.16l1.85-3.39,25.34-2.18c1.17.43,2.79,1.18,3.39,1.84s-.99,2.92-1.92,3.02Z"/>
  <path class="cls-3" d="M81.83,227.44c.31.89.07,2.79-.33,3.43-.51.8-3.45-.11-3.83-1.13l-7.93-20.82c-.39-1.02.49-3.55,1.44-3.78,1.46-.35,3.18.88,3.65,2.24l7.01,20.06Z"/>
  <g>
    <ellipse class="cls-3" cx="712.7" cy="148.28" rx="4.46" ry="4.46"/>
    <ellipse class="cls-3" cx="1214.91" cy="146.65" rx="4.38" ry="4.38"/>
    <ellipse class="cls-3" cx="497.99" cy="148.62" rx="4.51" ry="4.5"/>
    <ellipse class="cls-3" cx="1032.93" cy="147.39" rx="4.4" ry="4.4"/>
    <ellipse class="cls-3" cx="749.56" cy="148.23" rx="4.42" ry="4.42"/>
    <ellipse class="cls-3" cx="462.43" cy="148.83" rx="4.37" ry="4.37"/>
    <ellipse class="cls-3" cx="533.6" cy="148.51" rx="4.44" ry="4.44"/>
    <ellipse class="cls-3" cx="676.57" cy="148.29" rx="4.44" ry="4.44"/>
    <ellipse class="cls-3" cx="1178.51" cy="146.8" rx="4.4" ry="4.39"/>
    <ellipse class="cls-3" cx="963.98" cy="147.57" rx="4.38" ry="4.38"/>
    <ellipse class="cls-3" cx="98.35" cy="153.77" rx="4.34" ry="4.34"/>
    <ellipse class="cls-3" cx="786.57" cy="148.11" rx="4.36" ry="4.35"/>
    <ellipse class="cls-3" cx="1142.27" cy="146.97" rx="4.43" ry="4.43"/>
    <ellipse class="cls-3" cx="568.83" cy="148.25" rx="4.36" ry="4.36"/>
    <ellipse class="cls-3" cx="1068.98" cy="147.24" rx="4.27" ry="4.27"/>
    <ellipse class="cls-3" cx="391.46" cy="149.48" rx="4.32" ry="4.32"/>
    <ellipse class="cls-3" cx="173.41" cy="152.3" rx="4.23" ry="4.22"/>
    <ellipse class="cls-3" cx="1250.03" cy="146.66" rx="4.28" ry="4.27"/>
    <ellipse class="cls-3" cx="858.64" cy="147.69" rx="4.36" ry="4.36"/>
    <ellipse class="cls-3" cx="210.76" cy="151.93" rx="4.3" ry="4.3"/>
    <ellipse class="cls-3" cx="135.44" cy="153.15" rx="4.26" ry="4.25"/>
    <ellipse class="cls-3" cx="247.72" cy="151.3" rx="4.33" ry="4.33"/>
    <ellipse class="cls-3" cx="320.76" cy="150.35" rx="4.29" ry="4.28"/>
    <g>
      <ellipse class="cls-3" cx="822.73" cy="147.97" rx="4.48" ry="4.48"/>
      <ellipse class="cls-3" cx="62.31" cy="154.89" rx="4.37" ry="4.37"/>
      <ellipse class="cls-3" cx="640.72" cy="148.29" rx="4.41" ry="4.41"/>
      <ellipse class="cls-3" cx="998.57" cy="147.5" rx="4.31" ry="4.3"/>
      <ellipse class="cls-3" cx="284.63" cy="150.82" rx="4.34" ry="4.34"/>
      <ellipse class="cls-3" cx="1105.23" cy="147.08" rx="4.37" ry="4.36"/>
      <ellipse class="cls-3" cx="356.37" cy="149.92" rx="4.33" ry="4.32"/>
      <ellipse class="cls-3" cx="426.55" cy="149.15" rx="4.32" ry="4.32"/>
      <ellipse class="cls-3" cx="27.68" cy="155.55" rx="4.31" ry="4.3"/>
      <ellipse class="cls-3" cx="929.81" cy="147.5" rx="4.3" ry="4.3"/>
      <ellipse class="cls-3" cx="604.9" cy="148.22" rx="4.23" ry="4.23"/>
      <ellipse class="cls-3" cx="894.95" cy="147.55" rx="4.26" ry="4.26"/>
    </g>
  </g>
</svg>